<?xml version="1.0" encoding="utf-8"?>
<!-- Generator: Adobe Illustrator 17.1.0, SVG Export Plug-In . SVG Version: 6.00 Build 0)  -->
<!DOCTYPE svg PUBLIC "-//W3C//DTD SVG 1.1//EN" "http://www.w3.org/Graphics/SVG/1.1/DTD/svg11.dtd">
<svg version="1.1" id="Layer_1" xmlns="http://www.w3.org/2000/svg" xmlns:xlink="http://www.w3.org/1999/xlink" x="0px" y="0px"
	 viewBox="0 0 792 612" enable-background="new 0 0 792 612" xml:space="preserve">
<g>
	<g>
		<g>
			<path fill-rule="evenodd" clip-rule="evenodd" fill="#FFFFFF" d="M259.6,380.4c0.8-1.1,1.6-2.3,2.5-3.4c0.9-1.2,1.6-2.3,2.3-3.4
				c0.7-1.1,1-1.9,1-2.4c0-1.4-0.8-2.5-2.3-3.3c-1.5-0.8-2.5-1.2-2.9-1.2c0,0,0,0,0,0c-0.4,0-1.1,0.7-2,2.1
				c-0.8,1.4-2.2,3.6-4.3,6.5c-2.1,2.9-4.6,6.4-7.4,10.3c-2.8,3.9-5.8,8.2-9,12.7c-3.2,4.5-6.3,9-9.4,13.4c-1.4,1.9-2,3.3-2,4.3
				c0,0.5,0.6,1.2,1.9,2.1c1.3,0.9,2.1,1.4,2.5,1.4c1,0,1.5-0.2,1.7-0.7c2.7-3.5,5.2-6.9,7.5-10.3c2.3-3.4,4.7-6.7,7.2-10
				c2.5-3.2,5.2-6.4,7.9-9.4c2.8-3,6-5.8,9.7-8.3c2.3-1.7,5-3.3,8.1-4.8c3.1-1.4,5.9-2.2,8.4-2.2c2.1,0,3.8,0.2,4.9,0.7
				c1.2,0.5,2.1,1,2.8,1.5c0.7,0.6,1.2,1.1,1.6,1.5c0.4,0.5,0.7,0.7,0.9,0.7c0.6,0,1-0.2,1.2-0.7c0.4-0.8,1.2-2,2.5-3.6
				c1.2-1.6,2.5-2.9,3.6-4c0-0.8-0.6-1.5-1.9-2.2c-1.3-0.7-2.7-1.1-4.5-1.1c-2.3,0-5,0.6-8,1.7c-3,1.1-6,2.5-9.1,4.2
				c-3.1,1.7-6,3.4-8.8,5.3c-2.8,1.9-5.2,3.6-7.1,5.2c-0.6,0.5-1.1,0.7-1.4,0.7c-0.4,0-0.3-0.4,0.3-1.2
				C258.2,382.3,258.8,381.5,259.6,380.4z"/>
			<path fill-rule="evenodd" clip-rule="evenodd" fill="#FFFFFF" d="M545.6,352.5c-2.7,0-5,1-6.8,2.9c-1.8,1.9-2.8,3.9-2.8,5.9
				c0,1.9,1.2,2.8,3.5,2.8c2.5,0,4.8-1,6.8-2.9c2-1.9,3-3.8,3-5.7C549.4,353.5,548.1,352.5,545.6,352.5
				C545.6,352.5,545.6,352.5,545.6,352.5z"/>
			<path fill-rule="evenodd" clip-rule="evenodd" fill="#FFFFFF" d="M488,449.5c0.6,0.5,1,0.9,1.4,1.4c0.3,0.4,0.6,0.6,0.8,0.6
				c0.5,0,0.8-0.2,1-0.6c0.3-0.7,1-1.7,2.1-3.1c1.1-1.4,2.1-2.6,3.1-3.5c0-0.7-0.6-1.4-1.6-2c-1.1-0.6-2.4-0.9-3.9-0.9
				c-2,0-4.3,0.5-6.9,1.4c-2.6,1-5.2,2.2-7.9,3.6c-2.7,1.5-5.2,3-7.6,4.7c-2.4,1.7-4.5,3.2-6.1,4.6c-0.5,0.4-0.9,0.6-1.2,0.6
				c-0.3,0-0.3-0.3,0.3-1c0.3-0.4,0.8-1.1,1.5-2.1c0.7-1,1.4-2,2.1-3c0.7-1,1.4-2.1,2-3c0.6-1,0.9-1.7,0.9-2.1c0-1.3-0.7-2.2-2-2.9
				c-1.3-0.7-2.2-1.1-2.5-1.1c-0.3,0-0.9,0.6-1.8,1.9c-0.7,1.2-1.9,3.2-3.7,5.7c-1.8,2.6-3.9,5.6-6.4,9.1c-2.4,3.5-5,7.2-7.7,11.2
				c-2.7,4-5.4,7.9-8.1,11.8c-1.2,1.7-1.7,2.9-1.7,3.8c0,0.4,0.5,1,1.6,1.9c1.1,0.8,1.8,1.3,2.1,1.3c0.8,0,1.3-0.2,1.5-0.6
				c2.3-3.1,4.5-6.1,6.5-9.1c2-3,4.1-5.9,6.2-8.8c2.2-2.8,4.5-5.6,6.9-8.2c2.4-2.6,5.2-5.1,8.4-7.3c2-1.5,4.3-2.9,7-4.2
				c2.7-1.2,5.1-1.9,7.3-1.9c1.8,0,3.3,0.2,4.3,0.6C486.6,448.6,487.4,449.1,488,449.5z"/>
			<path fill-rule="evenodd" clip-rule="evenodd" fill="#FFFFFF" d="M731.7,500.1c-3.6,6.5-8.3,11.6-13.9,15
				c-5.7,3.5-12.2,5.2-19.6,5.3c-4.4,0-9.8-0.9-16.2-2.8c-6.4-1.9-13.4-4.5-20.9-7.7c-7.6-3.3-15.5-7-23.9-11.2
				c-8.4-4.2-16.8-8.7-25.4-13.3c-1-0.6-1.5-1-1.3-1.4c0.1-0.4,0.5-0.7,1.2-1c5.2-3.1,19.1-11.9,29.4-18.5c3.8,2.4,7.5,4.7,12,6
				c0.7,0.2,6.8,2.2,7.1,1.7c-1.7,2.3-3.3,4.7-4.6,7.2c-2.8,5.1-4.2,9.9-4.2,14.3c0,6.6,4.6,9.9,13.6,9.9c5.6,0,11.2-0.9,16.9-2.8
				c5.7-1.8,11.2-4.2,16.5-7.1c5.3-2.9,10.2-6.2,14.8-9.7c4.5-3.6,8.4-7,11.7-10.3c0-0.5-0.2-0.8-0.7-0.9c-0.5-0.2-0.9-0.1-1.3,0.2
				c-2.5,2.7-5.6,5.6-9.4,8.7c-3.8,3.1-7.9,5.9-12.3,8.6c-4.4,2.6-9,4.8-13.7,6.5c-4.7,1.7-9.3,2.6-13.8,2.6
				c-7.1,0-10.7-3.2-10.7-9.7c0-3.2,0.6-6.3,1.7-9.4c1.1-3.1,2.2-5.3,3.2-6.8c5.3,0,10.8-0.5,15.9-2c4.4-1.4,8.1-3,11-5
				c2.9-2,5.1-4.1,6.5-6.3c1.4-2.2,2.2-4.3,2.2-6.2c0-1.3-0.5-2.3-1.6-3.1c-1.1-0.8-2.9-1.2-5.6-1.2c-4.8,0-9.9,1.5-15.2,4.4
				c-5.3,2.9-10.2,6.6-14.6,10.9c-1.7,1.7-3.3,3.5-4.8,5.3c-0.5,0.6-6.1-1.5-6.8-1.8c-3.9-1.4-7.3-3.8-10.6-6.2
				c3.3-2.2,6.1-3.9,7.5-4.9c6.1-4.1,11-7.7,14.7-10.7c1.7-1.4,4-3.2,7-5.3c3-2.1,5.8-4.1,8.4-5.8c0.8-0.9,0.7-1.6-0.2-2.2
				c-0.9-0.6-1.7-0.6-2.5,0.1c-3.5,3.1-7.2,5.8-11,7.9c-3.8,2.1-7.6,3.2-11.4,3.2c-3,0-5.4-0.7-7.4-2c-2-1.3-3.1-3.2-3.3-5.6
				c-0.2-2.7,0.4-4.7,1.8-6c0-0.6-0.4-0.8-1-0.8c0,0,0,0,0,0c-2.5,1.4-4.6,2.9-6.3,4.5c-1.7,1.6-2.7,2.9-2.9,4.1
				c0.3,3.4,1.6,5.8,4.1,7.1c2.5,1.3,4.8,2,6.9,2c0.8,0,1.9-0.1,3.3-0.3c1.4-0.2,2.8-0.5,4.1-0.8c1.4-0.3,2.7-0.6,4-1
				c1.3-0.4,2.2-0.6,2.9-0.7c0.7,0,1,0.3,1,0.9c0,0.3-1.4,1.5-4.2,3.7c-2.8,2.2-6.6,4.9-11.4,8.1c-1.1,0.7-3.1,2-5.8,3.7
				c-0.5-0.4-1.1-0.8-1.6-1.1c-4.5-3-9.2-5.5-14.3-7.2c-3.2-1-6.5-1.8-9.8-1.8c-3.2,0-6.8,0.6-9.2,3c-1.8,1.8-3,4.4-4.4,6.5
				c2.6-2.1,10.1-5.1,13.4-5.1c6.2,0,13.4,2.2,18.8,5.3c1.4,0.8,2.7,1.6,4,2.4c-9.4,6-22.9,14.3-27.4,16.9
				c-6.5,3.6-13.4,7-20.7,10.2c-1.3,0.6-1.6,1.3-1.1,2.1c0.6,0.9,1.5,0.9,2.7,0.2c1.4-0.9,2.6-1.6,3.7-2.1c1-0.6,2.2-1.2,3.4-1.9
				c0.8-0.4,1.3-0.6,1.7-0.5c0.3,0.1,0.8,0.3,1.5,0.5c8.4,4.8,16.5,9.3,24.2,13.5c7.7,4.2,15.3,7.8,22.6,10.8
				c7.4,3,14.7,5.4,21.9,7.1c7.2,1.7,14.3,2.5,21.4,2.5c5.4,0,10.5-0.7,15.1-2c4.7-1.3,8.7-3,12.2-5c3.4-2.1,6.3-4.4,8.5-7.1
				c2.2-2.6,3.5-5.4,3.9-8.2C732.8,499.8,732.3,499.6,731.7,500.1L731.7,500.1z M684.6,454c2-1.2,4-1.8,5.9-1.8c2.5,0,3.8,1,3.8,3.1
				c0,4.4-2.1,8.3-6.4,11.5c-3.5,2.6-7.3,4-11.6,4.2c0,0-2,0.3-5.2,0.3c0,0-0.1,0-0.1,0c-0.6,0-1.3,0-2,0c-0.1,0-0.2,0-0.2-0.1
				c1.1-2,2.6-4.2,4.3-6.4c1.7-2.2,3.6-4.3,5.5-6.2C680.6,456.7,682.6,455.2,684.6,454z"/>
			<path fill-rule="evenodd" clip-rule="evenodd" fill="#FFFFFF" d="M420.5,484.1c-2.2-1.2-4.7-2.1-7.4-2.6c-2.7-0.5-5.1-1-7.4-1.4
				c-0.3,0-0.5-0.1-0.4-0.4c0.1-0.4,0.3-0.7,0.6-0.7c6.7-1.3,12.4-3.2,17.3-5.7c4.9-2.4,9-5,12.2-7.8c3.2-2.7,5.7-5.5,7.4-8.3
				c1.7-2.8,2.7-5.2,3.1-7.3c0.8-4,0.4-7.1-1-9.5c-1.4-2.4-3.9-4.2-7.3-5.5c-3.4-1.3-8-2.2-13.6-2.5c-5.6-0.4-12.1-0.5-19.5-0.5
				c-2.1,0-4.1,0-6,0c-3.7,0-8.1,0.1-13.2,0.4c-1,0-2.1,0-3.1,0c-3.5-0.1-6.8-0.1-9.8,0.9c-6.2,0.6-12.9,1.3-20,2.5c0,0-0.1,0-0.1,0
				c-27.6,4.3-60.5,12.3-86.5,30.5c-3-2-6.1-4.3-9.4-6.8c-16.4-12.4-30-24-40.6-34.6c-10.6-10.6-19.9-20.3-27.8-28.9
				c0-0.5,0.4-0.9,1.2-1.4c6.2-3.6,12.4-7.2,18.8-10.6c6.4-3.4,12.4-6.6,18.2-9.6c10.6-5.4,19.6-9.9,26.9-13.5
				c7.3-3.6,13.5-6.5,18.4-8.7c4.9-2.2,8.7-3.9,11.4-5c2.7-1.1,4.7-1.8,6.1-2.1c0.4-0.3,0.5-0.7,0.3-1.2c-1.4-0.3-2.7-0.6-3.9-0.9
				c-1.3-0.3-2.4-0.7-3.3-1.2l-1.2,0c-0.8,0.2-3.3,1.4-7.7,3.8c-4.3,2.4-9.2,5-14.5,8c-5.3,2.9-10.5,5.8-15.5,8.6
				c-5,2.8-8.5,4.6-10.4,5.6c-8.1,4.4-17,9.2-26.6,14.2c-9.7,5-19.5,10-29.5,14.9c-1,0.6-1.7,0.8-2.2,0.6c-0.5-0.2-0.3-0.9,0.4-2
				c7.1-9.8,13.5-18.6,19.2-26.3c5.7-7.8,11-14.9,16-21.4c1-1.3,2.1-1.9,3.5-1.9c1.7-0.2,3.8-0.3,6.2-0.4c2.4-0.1,4.1-0.1,5.1-0.1
				c0.8-0.6,0.9-1.3,0.3-2.1c-7.7,0.5-14.2,0.8-19.4,1c-5.2,0.2-10.8,0.3-16.8,0.3c-1.5,0-2.9,0-4.2-0.1c-1.3-0.1-2.4-0.1-3.3-0.1
				l-22.5,0.7c-39.1,0.4-97.9,6.2-120.4,30.3l-0.2,8.7c22.5-26.8,85.6-35.9,124.3-35.9c15.8-0.1,27.3,0.7,30.4,0.9
				c-3.3,5.5-6.8,11.3-10.6,17.4c-4,6.5-8.3,13-12.9,19.7c-4.5,6.6-9.1,13.2-13.7,19.7c-4.6,6.5-9.1,12.7-13.6,18.5
				c-4.8,6.3-9.3,11.9-13.4,16.7c-4.1,4.8-7.7,8.7-10.6,11.5c0,0.5,0.6,0.7,1.7,0.7l18.5-4.3l1.6-2.7c0.5-1.2,1.1-2.2,1.9-3.2
				c4.6-6.8,9.2-13.6,13.9-20.5c4.6-6.9,9.7-14.1,15.3-21.7c1-1.1,1.6-1.7,1.9-1.8c0.3-0.1,0.7,0.3,1.3,1.1
				c7.1,7.9,14.9,15.9,23.2,24.1c8.3,8.2,16.4,15.9,24.4,23.1c8.5,7.7,16.7,14,24.6,19c3.8,2.4,7.5,4.5,11.2,6.4
				c-16.3,13.6-29.1,32.1-34.6,57.4l2.7,3.2l3.4,4.2c5.8-26.5,19.1-46.4,36.1-61.3c1.4,0.6,2.8,1.2,4.2,1.8
				c7.3,2.8,14.3,4.8,20.8,5.9c6.6,1.1,12.8,1.6,18.5,1.6c9.3,0,18.2-1,26.8-2.8c8.6-1.8,15.6-4.2,21-7c0.8-0.5,1.2-0.9,1.2-1.2
				c0-1.1-0.8-1.3-2.3-0.5c-4.6,2.7-10.7,4.9-18.1,6.6c-7.4,1.7-15.1,2.5-23,2.5c-5.2,0-10-0.4-14.3-1.1c-4.3-0.8-8.8-2-13.3-3.8
				c-4.5-1.7-9.2-4.1-14.1-7.1c-0.2-0.1-0.4-0.3-0.6-0.4c24.2-18.5,54.4-28,80.8-32.1c16-2.5,30.3-3.5,40.7-3.9
				c0.1,0.1,0.1,0.2,0.1,0.3c-0.1,0.4-0.2,0.8-0.5,1.1c-2,2.8-4.3,5.9-6.8,9.4c-2.6,3.5-5.2,7-7.9,10.5c-2.7,3.5-5.4,7-8.1,10.3
				c-2.7,3.3-5,6.3-7,9c-2.6,3.1-5.4,6.6-8.5,10.5c-3.1,3.9-6.4,8-9.7,12.2c-5,6.3-9.6,13.1-14.7,19.3c0.6-0.7,8.3-0.7,10-1.6
				c3.6-1.9,6.2-4.7,8.6-7.9c6.5-8.5,12.9-17,19.5-25.5c8.3-10.8,16-20.5,23.1-29.3c2.1-2.5,4.4-5.2,6.8-8.1c2.4-2.9,4.8-5.4,7-7.4
				c1.4-1.3,2.9-2.2,4.5-2.6c0.2-0.1,0.5-0.1,0.7-0.1l0,0.2l0-0.2c1.4-0.3,2.8-0.4,4.4-0.4c2.6,0,5.2,0.2,7.8,0.5
				c2.6,0.4,4.8,1.1,6.8,2.1c1.9,1,3.4,2.5,4.4,4.3c1,1.8,1.2,4.2,0.7,7c-0.7,3.5-2,6.9-4,10c-2,3.1-4.4,5.9-7.1,8.4
				c-2.8,2.5-5.8,4.7-9,6.5c-3.2,1.9-6.4,3.4-9.6,4.6c-1.4,0.5-3.1,0.8-5,1c-1.9,0.2-3.6,0.3-5.1,0.4c-1.8,0-3.5-0.2-5.1-0.7
				c-1.6-0.4-3.2-0.7-5.1-0.6c-0.8,0-1.5,0.3-2.1,0.8c-0.6,0.5-1,1.1-1.1,1.9c-0.2,0.9-0.1,1.4,0.1,1.7c0.2,0.2,0.5,0.4,1,0.6
				c2.1,0,4.7-0.3,7.6-0.8c2.9-0.5,5.5-0.8,7.8-0.8c6.5,0.3,11.4,1.6,14.5,3.8c3.2,2.3,4.4,5.6,3.6,9.8c-0.9,5-3.2,9.7-6.7,14.1
				c-3.5,4.4-7.8,8.1-12.9,11.3c-5,3.2-10.5,5.7-16.4,7.6c-3.9,1.2-8.2,1.2-12.2,1.3c-15.6,0.4-30.6-4.4-45.5-9l-1.9,2.4
				c3,1,7.9,2.6,11,3.8c12.2,4.8,23.2,6.8,36.3,6.8c8.2,0,15.8-1.1,22.7-3.3c6.9-2.1,12.9-4.9,18.1-8.3c5.2-3.4,9.4-7.2,12.6-11.4
				c3.3-4.2,5.3-8.4,6.1-12.5c0.6-3.4,0.3-6.1-1-8.1C424.5,486.9,422.7,485.3,420.5,484.1z"/>
			<path fill-rule="evenodd" clip-rule="evenodd" fill="#FFFFFF" d="M605.8,473.6c-0.2-0.2-0.4-0.4-0.6-0.6c-2.2-1.7-4.9,2.5-6,3.9
				c-2.1,2.7-3.1,3.9-6.3,5.3c-4.3,1.9-8,2.9-11.1,2.9c-2,0-3.5-0.4-4.4-1c-0.9-0.7-1.4-1.9-1.3-3.8c0-2.1,1-5,2.9-8.6
				c1.9-3.6,4.2-7.4,6.9-11.4c2.7-4,5.6-7.9,8.6-11.6c3-3.8,5.5-6.9,7.6-9.3c0.9-1.2,1.4-2.1,1.4-2.7c0-0.6-0.3-1.2-0.9-1.9
				c-0.6-0.7-1.3-1-2.1-1c-1.1,0-3.1,0.8-6,2.4c-2.9,1.6-6.2,3.6-10.1,6c-3.8,2.4-7.8,5-12,7.9c-4.2,2.9-8,5.6-11.6,8.1
				c2.6-4.7,5.3-8.8,8.1-12.3c2.7-3.5,4.1-5.6,4.1-6.2c0-0.9-0.4-1.7-1.4-2.5c-0.9-0.8-1.9-1.1-3-1.1c-1.1,0-1.9,0.4-2.5,1.1
				c-2.3,4.2-5,9-8.2,14.4c-0.6,1.1-1.2,2.1-1.9,3.1c0,0,0,0,0,0c-3.3,2.4-7,3.6-11.3,3.7c-4.3,0-7.4-1.3-9.3-3.8
				c-1.9-2.5-3-5.8-3.3-9.8c-0.2-2.8-0.1-5.5,0.3-7.9c0.4-2.4,1.1-4.4,2.1-6c0.3-0.6,0.2-1-0.3-1.2c-0.2-0.1-0.4-0.1-0.6-0.1
				c-0.3,0-0.6,0.1-0.8,0.2c-0.6,0.3-1.4,0.5-2.2,0.6c-0.8,0.1-1.6,0.3-2.4,0.4c-1.6,0.3-2.7,1.2-3.3,2.7c-0.5,1.5-0.9,2.8-1.2,3.9
				c-5.1,0.4-9.7,1.8-14,4.1c-4.3,2.3-8,5.1-11.2,8.3c-1.5,1.4-3.2,3.3-4.9,5.5c-1.7,2.3-3.3,4.7-4.8,7.3c-1.4,2.6-2.6,5.2-3.5,7.9
				c-0.9,2.7-1.2,5.3-1,7.9c0.3,4.5,3.5,6.8,9.4,6.8c2,0,4.4-0.6,7.3-1.7c3.3-1.6,6.4-3.6,9.3-6c2.8-2.4,5.4-5.1,7.7-8
				c2.3-2.9,4.2-5.8,5.8-8.7c1.6-2.9,2.9-5.5,3.8-7.8c1.8,2.4,4.2,4.2,7,5.4c2.8,1.2,5.6,1.8,8.4,1.8c4.3,0,8.1-1,11.5-2.9
				c-2,3.3-3.9,6.5-5.8,9.5c-2.8,2.9-5.4,5.5-7.7,7.8c-2.3,2.3-3.5,4.2-3.5,5.5c0,0.5,0.3,1.5,0.9,3.2c0.6,1.7,1.4,2.5,2.3,2.5
				c0.4,0,0.9-0.4,1.7-1.3c3.2-3.9,5.9-7.5,8-10.6c2.2-3.2,4.7-6.6,7.8-10.4c1.7-1.7,3.9-3.5,6.6-5.6c2.7-2.1,5.5-4.2,8.4-6.2
				c2.9-2,5.7-3.9,8.5-5.7c2.8-1.8,5.2-3.2,7.3-4.3c0.9-0.5,1.5-0.4,1.8,0.1c0.3,0.5,0.2,1.2-0.2,1.9c-1.7,3.2-3.9,6.6-6.6,10.4
				c-2.7,3.8-5.4,7.5-7.9,11.1c-2.5,3.6-4.8,7.1-6.6,10.3c-1.9,3.2-2.8,5.9-2.9,8c0,2.1,0.9,3.4,2.7,4c1.8,0.5,3.9,0.8,6.1,0.8
				c4.8,0,9.7-0.9,14.8-2.9C591.5,484.5,608.9,478,605.8,473.6L605.8,473.6z M522.2,457.2c-1.8,3.7-4,7.3-6.7,11
				c-2.7,3.6-5.6,6.8-8.7,9.5c-3.1,2.7-6,4.1-8.8,4.1c-1.5,0-2.5-0.4-2.9-1.3c-0.5-0.9-0.8-1.8-0.8-2.8c-0.4-3.3,0.1-6.7,1.6-10.3
				c1.5-3.6,3.1-7,5-10.1c1.5-2.4,3.1-4.8,4.9-7c1.8-2.3,3.6-4.3,5.5-6.1c1.8-1.8,3.7-3.2,5.6-4.3c1.9-1.1,3.7-1.6,5.5-1.6
				c0.7,0,1,0.4,1.1,1.1c0.1,1.6,0.3,3.2,0.6,4.9c0.3,1.7,0.6,3.2,1.1,4.5C525,450.7,524,453.5,522.2,457.2z"/>
			<path fill-rule="evenodd" clip-rule="evenodd" fill="#FFFFFF" d="M400.7,362.6L400.7,362.6c32.9,3.8,59.4,0.6,79.8-5.1
				c-1.3,1.7-2.8,3.6-4.4,5.8c-4,5.2-8.1,10.8-12.1,16.6c-3,4.4-5.8,8.7-8.2,12.7c-1.8,1.7-3.8,3.5-6.1,5.5
				c-3.3,2.9-6.8,5.7-10.7,8.4c-3.9,2.7-7.7,5-11.6,6.9c-3.9,1.9-7.5,2.9-11,2.9c-3.7,0-5.5-1.6-5.5-4.7c0-2.2,1-5.4,3-9.6
				c2-4.2,1-2.5,3.8-7c2.7-4.5,5.3-8.7,7.9-12.7c2.6-3.9,4.4-6.8,5.3-8.5c0.4-0.6,0.7-1.2,0.9-1.7c0.2-0.5,0.3-0.9,0.3-1.4
				c0-2.2-1.5-3.3-4.3-3.3c-2.9,1.1-6,2.6-9.4,4.5c-3.4,1.9-6.7,4-10.1,6.2c-3.4,2.2-6.5,4.6-9.5,7c-3,2.5-5.6,4.8-7.9,7
				c-0.4,0.3-0.7,0.5-1,0.6c-0.3,0.1-0.2-0.2,0.1-0.8c1.3-2.1,2.9-4.7,4.6-7.9c1.7-3.2,2.6-5.7,2.6-7.2c0-2.4-1.1-3.5-3.2-3.5
				c-3.3,0-7.5,1.9-12.7,5.6c-5.2,3.7-11.7,9.2-19.4,16.5c2.5-3.8,5.4-8,8.7-12.6c3.3-4.6,5.6-8.5,6.9-11.6c0-0.8-0.4-1.6-1.2-2.5
				c-2.1-2.4-5.6-1.5-8.1-0.4c-1.7,0.8-18.6,9.7-12.9,12.7c2.3,1.2,3.9-2.9,4.4-4c0.8-1.9,2.3-2.7,4.3-3.3c3.7-1,1.2,3.2,0.1,4.8
				c-2.7,4.1-5.8,8.1-8.7,12.1c-1.3,1.9-2.7,3.8-4.1,5.7c-0.7,0.6-1.4,1.2-2.1,1.8c-3.8,3.1-7.9,5.9-12.3,8.6
				c-4.4,2.6-9,4.8-13.7,6.5c-4.7,1.8-9.3,2.6-13.7,2.6c-7.1,0-10.7-3.2-10.7-9.7c0-3.2,0.6-6.3,1.7-9.4c1.2-3.1,2.2-5.3,3.2-6.8
				c6.2,0,11.5-0.7,15.9-2.1c4.4-1.4,8.1-3,11-5c2.9-2,5.1-4.1,6.5-6.3c1.4-2.2,2.2-4.3,2.2-6.2c0-1.3-0.5-2.3-1.6-3.1
				c-1.1-0.8-2.9-1.2-5.6-1.2c-4.8,0-9.9,1.5-15.2,4.4c-5.3,2.9-10.2,6.6-14.6,10.9c-4.4,4.4-8,9.1-10.8,14.2
				c-2.8,5.1-4.2,9.9-4.2,14.3c0,6.6,4.5,9.9,13.6,9.9c5.6,0,11.2-0.9,16.9-2.8c5.7-1.8,11.2-4.2,16.5-7.1c4.9-2.7,9.3-5.7,13.6-8.9
				c-2.5,3.4-5.1,6.8-7.6,10.2c-0.8,0.8-1.2,1.8-1.2,3.1c0,1.1,0.1,2.2,0.4,3.3c0.3,1.1,1.2,1.7,2.8,1.6c1,0,2.4-1.3,4.3-3.8
				c1.9-2.5,4.2-5.5,6.9-8.8c2.1-2.5,4.8-5.4,8-8.5c3.2-3.2,6.4-6.2,9.7-9c3.3-2.8,6.3-5.3,9.1-7.2c2.8-2,4.8-3,5.9-3
				c0.8,0,1.2,0.6,1.2,1.9c0,0.3-0.4,1.4-1.1,3.3c-0.8,1.9-1.9,4.2-3.3,6.9c-1.4,2.7-3.2,5.6-5.2,8.8c-2,3.2-4.3,6.2-6.8,9
				c-1.5,1.7-2.6,3.2-3.2,4.4c-0.6,1.2-0.9,2-0.9,2.5c0,0.8,0.4,1.6,1.2,2.4c0.8,0.8,1.6,1.2,2.6,1.2c1,0,2.1-0.7,3.3-2.1
				c1.3-1.4,2.5-3.2,3.8-5.2c1.3-2.1,2.6-4.2,3.9-6.4c1.3-2.2,2.7-4.1,4-5.7c1.3-1.6,3.3-3.6,5.9-5.9c2.6-2.4,5.4-4.8,8.5-7.4
				c3.1-2.5,6.2-4.9,9.4-7c3.2-2.1,6-3.8,8.5-4.9c1,0,1.4,0.5,1.4,1.4c0,1.6-1.1,4.3-3.3,8.2c-2.2,3.9-4.7,7.9-7.4,12.2
				c-2.7,4.3-1.8,2.3-4,6.3c-2.2,4-3.3,6.8-3.3,8.5c0,2.7,0.8,4.6,2.3,5.9c1.5,1.3,4.2,1.9,8.1,1.9c4.2,0,8.6-1,13.2-2.9
				c4.5-1.9,8.9-4.3,13.2-7.1c4.2-2.8,8.2-5.9,12-9c0.9-0.8,1.8-1.5,2.6-2.2c-2.5,4.6-3.8,8.3-3.8,10.9c0,2.8,1.1,5.2,3.3,7.2
				c2.2,2,5.8,2.9,10.9,2.9c5.8,0,11.6-1.1,17.4-3.4c5.8-2.2,11.3-5,16.6-8.3c5.3-3.3,10.3-7,15-10.9c0.4-0.3,0.7-0.6,1.1-0.9
				c-1.3,2-2.5,4.1-3.5,6c-1.9,3.6-2.9,6.4-2.9,8.4c0,1.7,0.4,3.1,1.3,4.1c0.9,1,1.9,1.9,3.2,2.5c1.3,0.6,2.7,1,4.2,1.2
				c1.5,0.2,2.9,0.2,4.1,0.2c3.3,0,6.9-0.6,11-1.7c4-1.1,8-2.7,11.9-4.8c5-2.7,10.5-6.3,16.5-10.7c3.6-2.7,7-5.5,10.1-8.3
				c-1.3,2.1-2.5,4.2-3.7,6.2c-2.9,3-5.5,5.7-8,8.2c-2.4,2.5-3.6,4.4-3.6,5.8c0,0.5,0.3,1.6,1,3.3c0.7,1.7,1.5,2.6,2.5,2.6
				c0.4,0,1-0.5,1.7-1.4c3.3-4.1,6-7.8,8.2-11.1c2.2-3.3,4.9-7,7.9-10.9c1.7-1.7,4-3.7,6.8-5.9c2.8-2.2,5.7-4.4,8.7-6.5
				c3-2.1,5.9-4.2,8.8-6.1c1.1-0.7,2-1.2,3-1.4c0,7.8,0.1,15.2,0.3,22.3c0.5,19.9,8,47.6,31.9,50.7c-2.8-4.1-10.3-5.6-14.2-10.8
				c-7-9.4-7.2-23.1-7.9-34.3l-0.3-26.5c-0.3-1.8-1.5-3-3.1-3.6c-3-1-5.7-0.8-8.5,0.9c-3.7,2.2-7.1,4.7-10.6,7.1
				c-4.3,3-8.3,5.9-12,8.6c2.7-4.9,5.4-9.2,8.2-12.9c2.8-3.7,4.2-5.9,4.2-6.5c0-1-0.5-1.8-1.5-2.6c-1-0.8-2-1.2-3.2-1.2
				c-1.2,0-2,0.4-2.6,1.2c-2.3,4.4-5.1,9.4-8.4,15.1c-0.9,1.6-1.8,3.1-2.7,4.7c-2,2-4.4,4.3-7.4,6.8c-3.8,3.3-8,6.5-12.6,9.5
				c-4.5,3-9.1,5.6-13.7,7.7c-4.6,2.1-8.9,3.2-12.7,3.2c-2.1,0-3.8-0.4-5.1-1.3c-1.3-0.9-1.9-2.3-1.9-4.1c0-1.7,0.6-4.1,1.9-7.1
				c1.2-3,2.9-6.3,5-9.8c2.1-3.6,4.5-7.2,7.1-11c2.6-3.8,5.2-7.3,7.7-10.4c0.4-0.3,0.7-0.8,1-1.4c0.3-0.6,0.4-1.1,0.4-1.4
				c0-0.5-0.5-0.7-1.4-0.7c-0.8,0-2.4,0.4-4.8,1.3c-2.4,0.9-4.1,1.9-5.1,3.2c-1.6,1.7-3.6,4.4-6.2,7.8c-2.5,3.4-5.1,6.9-7.6,10.6
				c-1.3,1.2-2.7,2.4-4.2,3.7c-4.2,3.6-8.6,6.9-13.3,10.1c-4.7,3.2-9.7,5.9-14.9,8.1c-5.2,2.2-10.2,3.3-15.1,3.4
				c-5.6,0-8.4-2.5-8.4-7.6c0-3.2,1.1-7,3.3-11.6c2.2-4.6,4.8-9.2,7.8-14c3-4.7,6-9.2,9.1-13.5c3.1-4.3,5.5-7.7,7.2-10.2l3-4
				l0.1-0.1c0.1-0.1,0.2-0.2,0.3-0.3c27.8-9.8,41.3-23.2,41.3-23.2l0,0c2.4-1.9,4.8-3.9,7-5.8c7.2-6.3,13.7-12.7,19.4-19.1
				c5.7-6.4,10.5-12.4,14.5-18c3.9-5.6,7-10.5,9.1-14.8c2.1-4.3,3.2-7.5,3.2-9.7c0-1.4-0.5-2.5-1.5-3.2c-1-0.7-2.2-1.1-3.8-1.1
				c-2.1,0-6.3,1.4-12.4,4.1c-6.2,2.7-12.9,6.6-20.2,11.7c-5.4,3.6-9.8,7.3-13.3,10.9c-3.5,3.6-6.8,7.5-10.1,11.6
				c-2.7,3.3-5.6,7.2-8.8,11.5c-3.2,4.4-6.5,8.9-10,13.6c-3.5,4.7-7,9.6-10.6,14.6c-3.6,5-7,9.8-10.3,14.4c-0.7,0.9-1.5,2-2.4,3.2
				c-36.9,9.8-74.1,5.3-80.5,4.8v0c-42.8-5.6-88.6-25.5-108.3-76.4l-2.7,4.6l-2.1,3.6C309.1,343.1,357.1,358.6,400.7,362.6
				L400.7,362.6z M320.5,370.4c2-1.2,4-1.8,5.9-1.8c2.5,0,3.8,1,3.8,3.1c0,4.4-2.1,8.3-6.4,11.5c-4.2,3.2-9.2,4.9-14.8,4.9
				c0,0,0,0,0,0c-0.6,0-1.3,0-2.3-0.1c-1-0.1-1.6-0.2-2-0.3c1.1-2.1,2.6-4.2,4.3-6.4c1.7-2.2,3.6-4.3,5.5-6.2
				C316.5,373.2,318.5,371.6,320.5,370.4L320.5,370.4z M566,266.5c1.1-0.5,2.2-0.7,3.2-0.7c2.5,0,3.8,1.3,3.8,3.8
				c0,5.2-2.1,11.6-6.3,19.2c-4.2,7.6-10,15.4-17.3,23.5c-5.2,5.7-11.1,11.4-17.8,16.9l0,0.2l-0.1-0.1c-11,10.2-24.1,17.3-37.7,22.1
				c6.9-9.1,13.1-17.2,18.3-24.2c6.1-8,11.3-14.7,15.6-20.2c4.3-5.5,7.9-9.8,10.7-13.2c2.8-3.3,5-5.8,6.5-7.6c4-4.3,7.4-7.8,10-10.4
				c2.6-2.7,4.8-4.8,6.6-6.3C563.4,267.9,564.9,266.9,566,266.5z"/>
		</g>
		<g>
			<path fill-rule="evenodd" clip-rule="evenodd" fill="#FFFFFF" d="M443,102.7c15.3-4.1,30.4-9.2,45.1-15.1
				C540.3,66.9,554,41.5,554,25.9c0-3.5-0.8-7.3-2.5-9.9c-3.1-4.8-11.3-4.1-14.7,0c-3.7,4.5,1.6,17.2,8.1,12.5
				c4.1-3-3.3-10.5,0.6-11.8c3.1-1,6.5,6.6,6.4,8.7c-0.1,4.6-1.8,9.7-3.6,14c-6.5,14.9-20,24-33.8,31.5
				c-15.4,8.3-30.3,15.2-46.8,20.7c-9.5,3.2-18.9,6.5-28.6,9c-14.9,3.9-29.1,8.5-43.5,13.7c-1.1,0.4-15.6,7-15.4,7.2
				c-3.1-3.4-6.2-7-9.1-10.7c-3.1-3.9-6.5-8.9-6.5-14c0-0.1,0-0.3,0-0.4c0.6-8.7,4.1-10.4,8.6-10.5c3.8,0,8.3,1.6,11.4,2.2l0.7,0.2
				l0.1-0.8c0.2-1.3,0.3-2.4,0.3-3.5c0-4.2-1.5-6.6-3.1-7.9c-0.2-0.2-0.4-0.3-0.7-0.5c5.8-1.1,19.9-4.7,23-14.8l0.2-0.7l-0.7-0.2
				c-3-0.9-6-0.1-8.3-1.7c-2.1-1.3-9.9-3.5-16.6-3.5c-3.3,0-6.4,0.5-8.3,2.2c-0.9,0.9-1.6,1.1-1.9,1.1c-0.5,0.1-1.1-0.8-1.5-2.4
				c-0.8-2.8-1-7.9-4.9-8.3c4.9,0.4-4.6,16.1-5.2,17.4c-3.5,6.4-6.7,13.1-6.7,20.6c0,2.2,0.2,4.4,0.8,6.5c0,0.3,0.2,1.9,0.8,4.4
				c-2-1.3-5.5-3.7-9.1-6.6c-3.5-2.7-7.6-5.8-9.5-10c-0.8-1.9-2.1-11.3,0.8-12.3c-5.8,2-7.3,10.9-7.3,16.2c0,1.1,0.1,2.2,0.1,3.3
				c-12.2-7.1-11-29.9-3.5-39.6c2.7-3.5,7-6.5,8.8-10.5c-12.6,0.3-17.6,12.3-18.3,23.1c-0.6,8,1.9,15.6,5.5,22.6
				c3.3,6.2,9.6,11.9,12,18.2c-0.4-1.1-6.9-4.5-8.2-5.4c-3.5-2.5-7-4.9-10-8c-7.4-7.7-17-20.3-17.5-31.4c-0.2-6.3-3.5-11.5-8.9-15.1
				c-2.8-1.9-5.7-2.7-9-2.7c-1.3,0-3.8-0.2-4.8,1c-0.8,1-0.9,3.2,0.6,3.7c1.5,0.5,4.3-1.8,6.2-1.7c1.4,0.1,2.9,1,4.1,1.8
				c4.4,3.1,6,9.3,6.9,14.3c3.9,22.5,29.6,39.2,32.1,40.8c-1.3-0.8-4.3-0.5-5.7-0.6c-1.1-0.1-3.3-0.1-4.3-0.5
				c-0.9-0.4-1.5-1.8-2.2-2.5c-2.1-2-4.8-4-7.2-5.7c-2.4-1.7-5.1-2.6-7.7-3.9c-4.9-2.3-13.4-3.2-18.4-0.6c-2.1,1.1-4.4,3.4-5.6,5.4
				c-2.5,4.1-2.3,7.7-1.4,12.3c2.3-4.2,5.2-7.8,8.9-10.9c9.8-8.1,21.1-0.7,28.1,7c-4.7,2.8-8.9,5.6-12.1,10.2l-1,1.4l1.7-0.2
				c0.1,0,0.2,0,0.3,0c1.5,0,4.9,1.1,7.7,2.2c1.9,0.7,3.6,1.5,4.5,1.9c-0.7,1.2-1.8,3.9-1.8,8.2c0,3.5,0.7,8.2,3.1,14l0.5,1.2l0.8-1
				c6.4-8.2,12.1-14.1,23.9-14.1c2.5,0,5.3,0.3,8.4,0.9c-2.1-0.4-8.7,3.1-10.2,4.2c-2.8,2-4.2,5.4-6.9,7.5c-2.6,2-7.2,2.6-8.7,5.9
				c-1.7,3.7,1.4,7.6,4.1,9.9c2.6,2.2,5.6,3.4,8.9,4.2c1.3,0.3,4.7,0.2,5.7,1l0.8,0.1l0-0.8c0-4.5,0.4-12.4,6.3-12.4
				c1,0,4.3,1.4,6.7,2.1c-9.2,12.5-28.6,41.9-31.4,70.1c-0.4,3.8-0.5,7.5-0.5,11.1c0,15.7,3.4,30.6,8.8,45.3
				c0.4,1.1,0.7,2.3,1.3,3.4c0.9,1.7,2.7,2.8,3.6,4.5c0.8,1.5-0.1,2.4-0.5,3.9c-0.5,2.3,0.1,5.5,1.5,7.4c1.7,2.4,6.4,0.9,9,0.9
				c1.1,1.1,2.1,2.1,3.2,3.2c1,1,3,2.5,3.7,4c-0.1,0.7-0.2,1.5-0.2,2.3c0,0,0,0,0,0.1c0,1,0.6,9.1,16.8,20.1
				c8.4,5.7,14.6,11.7,18.7,16.2c2.2,2.5,4.1,5.2,6.6,7.4c2.9,2.5,5.1,5.7,7.1,8.9c0.5-1.9,1.6-9.9,0.3-13.9
				c0.5,0.4,1.1,0.9,1.6,1.3c4.9,3.9,10,8.9,11.2,12.1l0.6,1.7l0.7-1.7c0-0.1,1.9-4.2,1.9-9.2c0-2.6-0.6-5.3-1.9-7.5
				c-0.1-0.1-2.2-2.9-2.7-4.5c2.4,0.4,8.2,1.3,15.9,1.3c17.9,0,46.2-4.6,65.4-29.8c4.6-5.9,8.9-7.4,12.3-7.4c2.2,0,4.1,0.7,5.4,1.3
				c1.3,0.7,2.1,1.3,2.1,1.3l0.8,0.7l0.4-1c0,0,0.6-1.7,0.6-3.9c0-1.5-0.3-3.4-1.3-5.1c0.6-0.6,1.9-1.7,3.4-2.9
				c2.1-1.6,4.8-3.2,6.4-3.2h1.2l-0.5-1.1c-1-2-2.1-4.1-3.7-5.8c-2-2.2-4.4-4.1-7.4-4.9c-1-0.3-2.9,0.2-2.9-1.2
				c0-0.2,2.5-5.4,1.6-5.4c-3.3,0.1-6.3-1-9.6-1c-3.5,0-6.1,1.1-8,2.7c0.1-1.1,0.1-2.1,0.1-3.1c0-20.3-13.3-35.1-14.6-36.5
				c-0.4-1.2-0.6-4.2-0.6-7.6c0-7.1,0.7-16.6,1-20c3.5,2.6,6.8,4.7,9.9,5.6c1.9,0.5,3.5,0.7,4.8,0.7c0,0,0,0,0.1,0
				c2.4,0,4.8-0.8,6.2-2.7c0.6-0.8,1.1-1.8,1.1-2.9c0-0.1-0.1-0.4-0.2-0.9c2.2,0.4,4.5,0.6,6.4,0.6c1.4,0,2.6-0.1,3.5-0.3
				c0.4-0.1,0.8-0.2,1.1-0.4c0.3-0.2,0.7-0.4,0.7-1c-0.1-0.8-0.6-1-1-1.3c-1.2-0.5-2.5-4.2-3.2-8.7c-0.8-4.5-1.3-9.9-2.2-13.9
				c-0.4-1.7-1-3.3-1.9-4.8c-1-1.7-2.6-3.5-4.4-4.3c-0.8-0.4-1.5-0.3-0.9-1.3c0.9-1.4,2.5-0.7,3.6-1.2c1-0.4,0.5-2.6,0.5-3.5
				c0-2.3-0.4-4.6-1.4-6.6c-0.9-1.7-2.3-2.7-3.9-3.7c-1.6-1-3-2.5-4.8-3.2c2.6-2.9,3.5-5.9,3.5-8.6c0-2.3-0.5-4.8-1.8-6.8
				c-1.1-1.7-1.6-2.4-3.7-2.2c-1.4,0.1-2.8,0.2-4.2,0.3c-0.3,0-1.6-0.2-3.5-1.1c-2.2-1-5.1-2.9-7.9-6.6l-0.4-0.5l-0.6,0.4
				c-8.1,5.3-15.6,6.7-21.2,6.7c-2.3,0-4.7-0.1-6.9-0.8c-2.3-0.8-3.8-0.7-6,0.7c-0.7,0.5-3.8,3.7-4.4,3.5c-1.2-0.3-5.2-1.3-6.9-1.3
				h-0.1l-0.1,0c-7.6,2.8-15.4,7.3-20.3,14c-1,1.3-1.8,2.8-2.6,4.2c-4.2-3.6-8.5-7.1-12.8-10.6c-0.9-0.8-9.6-10.7-9.1-11
				c6.8-3.9,13.9-7,21.1-10.1C416.9,110,430.1,106.2,443,102.7L443,102.7z M317.2,98.8c4.5,0,8.6,1.1,11.6,2.2
				c2.2,0.8,10.3,5.4,8.1,8.6c-2,3-10.8-2.7-12.7-4c-2.2-1.5-5-5.1-7.9-6.8C316.5,98.9,316.8,98.8,317.2,98.8L317.2,98.8z
				 M338.9,117.7c-0.9,0.6-1.9,1-2.9,1.5c-3.5,1.4-7.7,2.2-11,3.6c-5.1,2.1-8.1,6-12.5,9c0.2-0.1-0.8-5.4-0.9-6.2
				c-0.3-3.4,0.1-6.8,1.4-10c1-2.5,2.6-4.8,2.7-7.5c-1.3,2.1-3.7,3.3-6.2,3.3c-3.7,0-7.3-2.6-11-3.2c3.7-4.8,8.1-7.3,12.4-8.5
				c4.1,4.2,8.6,8.2,13.6,11.3c2.6,1.6,5.4,3.1,8.3,4C333,115,339.7,117.1,338.9,117.7L338.9,117.7z M329.3,83.8
				c0-2.5,0.4-4.6,0.8-5.9c0.2-0.7,0.5-1.2,0.7-1.5c0-0.1,0.1-0.1,0.1-0.1c0,0.1,0.1,0.3,0.1,0.6c1,9.6,6.8,17.3,12.8,24.5
				c5.6,6.7,9.6,14.6,15.1,21c0.9,1,1.5,1.9,1.7,2.7c0.1,0.5-7.6-4.4-8-4.8C333.6,106.7,329.3,92.4,329.3,83.8L329.3,83.8z
				 M340.9,289.9c-2.2,0-5.6-1.1-6.3-3.4c-0.4-1.3-0.4-2.5,0-3.8c0.5-1.4,2.2-2.6,2.1-4.2c-0.1-1.9-2.3-0.7-3.4-1.7
				c-3.4-3.1-4.7-8.8-6.1-13c-3.1-9.4-6.2-22.7-6.2-38.2c0-3.5,0.2-7.2,0.5-11c1.8-18.3,10.7-37.2,19.2-51.5
				c3.5-5.9,9.3-17.4,16.8-18.8c0.3-0.1,0.6-0.1,0.8-0.1c-4.6,5.3-33.5,40.1-33.6,82.5c0,8.6,1.2,17.2,3.7,25.4
				c1.6,5.2,3.6,10.3,6,15.1c1.2,2.4,2.5,4.8,3.9,7.1c1.5,2.4,2.4,5.9,5.1,7.1c1.6,0.7,2.8,0.1,3.9-1.1c0.4-0.5,1.9-2.9,2.9-2.3
				c2,1.3-0.1,6.1-1.2,7.4C347.3,287.3,343.7,289.9,340.9,289.9L340.9,289.9z M394.3,173.3c-0.4,0-0.9,0.1-1.3,0.1
				c-1.7-0.2-3.6-0.3-5.7-0.3c-3.5,0-7.4,0.4-11.1,1.7c0.8-3.9,4.5-7.4,8.3-9.9c1.5-1,3-1.9,4.3-2.5c0.7,0.6,1.7,1.4,2.9,2.3
				c-3.5-0.4-6.9,0.5-9.6,3.4C385,170.5,390.8,170.1,394.3,173.3L394.3,173.3z M374.6,175.3c0,0.3-4.7,2.7-5.3,3.2
				c-1.8,1.4-3.3,3.2-4.4,5.2c-1.6,2.8-2.7,5.9-3.1,9.2c-0.4,2.8-1.2,6.6-0.2,9.3c0.2,0.6,0.8,1,1,1.5c0.7,1.9,0,4.3-0.1,6.3
				c-0.2,2.5-0.2,5-0.2,7.5c0,2.1,0.1,3.9,0.3,5.3c0.4,2.4,0.5,4.5,0.5,5.9c0,1.1-0.1,1.8-0.1,2.1l-6.1,9l0.7,0.4
				c0.1,0,4.9,2.7,10.3,2.7c1.8,0,3.8-0.3,5.6-1.2c0.3,0.3,0.5,0.8,0.6,1.7c0.6,3.5,0,10.7,7,16.3l1,0.8l0.2-1.2
				c0.6-3.8,4.1-11.9,5.7-15.6l2.1,9.1l5.6-6.8l1.3,18.6l0.9-0.2c0-0.1,6.6-1.5,8.7-5.6c4.7,10.1,17.8,12.7,21.8,12.7
				c0.4,0,0.7,0,0.9-0.1c0.2-0.1,0.7,0,0.9-0.9c0-0.4-0.3-0.6-0.4-0.7c-0.4-0.2-1.2-2.1-1.1-4.3c0-2.7,0.9-5.9,3.4-7.9
				c2.3-1.9,3-5,3.2-7.9c2.1,1.4,6,4.1,6.7,4.4l0.7,0.3l0.3-0.7c2.9-5.9,4-11.1,4-15.7c0-6.3-2.4-12.5-6.6-17.2
				c-3-3.3-8.9-9.9-13.6-5.3c1.6-1.5,8.4,2.7,9.6,3.8c2.4,1.9,3.9,4,5.1,6.8c2,4.8,2.4,9.6,2.7,14.8c0.1,1.2-0.9,12.3-2.1,11.5
				c-5.1-3.2-6.1-8.8-7.3-14.5c0.1,0.3-1.3,2.5-1.5,3.2c-0.3,1.5,0.1,3,0.2,4.5c0.1,3.1,0,5.7-1.7,8.6c-1.6,2.7-4.1,4.8-4.6,8.1
				c-0.1,0.8,0.2,7.6,1.1,7.6c-4.9-0.2-10.4-2.2-14.4-5.1c-10.1-7.4-4.1-22.4-13.4-29.9c2.1,1.7,2.9,10.8,3.2,13.4
				c0.4,2.6,0.9,11.1-3,12.2c-2.9,0.9-2.8-7.6-2.9-10.2c-0.1-1.9-0.4-3.8-0.8-5.6c-0.3-1.5-0.3-3-0.5-4.5c-0.1-1-0.3-1.8-0.6-2.7
				c-0.4-1.3-0.9-2.7-1-4.1c0,3.9,1.1,7.7-0.5,11.5c-0.4,1-1.3,1.7-1.8,2.7c-0.2,0.3-1.5,1.8-1.4,2c-0.3-1.7-0.7-3.4-0.8-5.2
				c-0.2-1.9,0.4-3.7,0.6-5.5c0.3-2.3,0.5-5.1,0.4-7.3c-0.2,1.4-0.8,2.7-1.3,4c-0.4,1.1-0.6,2.2-1,3.2c-0.3,0.8-0.9,1.5-1.2,2.3
				c-0.1,0.2-5,10.8-6.5,16.7c-3.5-3.2-4.5-6.9-5-10c-0.9-6.4,1.5-11.9,0.1-18.2c-0.2-1.1-0.3-2.4-0.7-3.4c-0.4-1.1-1.3-1.8-1.7-2.7
				c3.6,9-1.5,20.7-12.5,16.8c-0.9-0.3-1.7-0.7-2.2-0.9c0,0,5-5.8,5.3-6.8c1.2-3.7-0.4-8.3-0.2-12.1c0.2-3.8,0.9-7.5,0.8-11.3
				c-0.1-5,0.9-9.9,3.1-14.4c-1.5,1-2.5,3.1-3.8,4.4c-1.8-1.8-0.2-7.3,0-9.5c0.4-3.4,2.5-6.7,5-9c4.6-4.3,10.9-5.8,17-5.9
				c-8,2-16.6,6.3-20,13c8-5.8,21.3-13.2,30.7-6.9c-7.1,3.7-27.7,9.5-28.6,18.2c6.1-6.1,15.9-11.3,24.7-12.7
				c-7.7,4.7-16.9,32.2-14.3,40.8c2.7-5,2.8-11,5.8-16c3.8-6.3,10.3-15.4,16.1-18.8c-7,11.1-5.1,21.7,2.8,31.6
				c5.2,6.5,20.1,17.1,18.7,26.9c1.9-13.9-8.3-19-10.8-30.5c-2.1-9.8,2.8-17.9,11.9-21.4c15.6-6.1,34,5.6,34,22.2
				c0,5.3-1.3,11.9-4.6,19.8l-1.1,2.1l-5.2-1.2l-0.3,1.4l6.3,1.5l1.6-3.2c2.6-6.4,4-11.9,4.5-16.7l5.6,1.9c0.7,0.7,5,4.9,9.3,11.7
				c4.7,7.5,9.4,18,9.4,30.3c0,0.1,0,0.2,0,0.2c-1.1,2-2.8,3.6-4.2,5.4c-2.7,3.5-4.8,7.3-6.6,11.3c-0.9,2-1.8,4.1-2.6,6.2
				c-0.4,1-0.9,2-1.1,3.1c-0.2,0.9-0.2,1.8-0.8,2.6c-0.4-1.9-0.7-4.1-1.3-5.9c-0.4-1.1-0.9-2.2-1.3-3.2c-1.5-3.1-3.4-7.4-6.7-8.9
				c-0.9-0.4-3.8-1.2-4,0.2c-0.2,1.6,1.7,0.6,2.4,0.9c3,1.1,0.9,7.3,0.5,9.3c-0.7,3.8-2,7.5-4.1,10.7c-5.4,8-14.1,13.8-23.3,16.5
				c-4.4,1.3-8.8,2.3-13.3,2.8c-2,0.3-4,0.4-6,0.5c-1,0.1-4.6-0.4-5.3,0.1c3.3-2.6,5.5-6.1,6.7-10.1c0.7-2.3,1.4-4.5,1.6-6.8
				c0.2-2.7,0.7-5.9-0.8-8.4c-5.8,4.3-12.3,6.6-19.3,8.6c-5.1,1.5-11,1.7-15.6-1.3c-4-2.5-7.8-5.4-11.5-8.4c-1.3-1-2.5-2.1-3.7-3.1
				c-0.5-0.4-1-0.9-1.7-1.2c-0.5-0.3-0.8-0.5-1.4-0.5c-0.3,0-1,0.3-1.2,0.2c-0.3-0.1-0.5-0.3-0.8-0.4c-0.4-0.4-1-1.2-1.4-1.7
				c-1.1-1.2-2.2-2.4-3.2-3.5c0.9-2.9,3.4-8.7-0.9-10c-0.8-0.3-1.7-0.3-2.5-0.5c-1.4-0.3-1.9-1.8-2.5-2.9c-0.5-1-1.1-1.4-1.8-2.2
				c-6.8-7.3-10.5-18.1-13.2-27.5c-1.3-6.4-1.9-12.6-1.9-18.6c0-23.2,9.1-42.7,18.2-56.4c4.6-6.9,9.1-12.3,12.5-15.9
				c0.6-0.7,1.2-1.2,1.7-1.8c1.3,0.6,6.1,2.7,11.2,5.3c2.2,1.1,4.4,2.3,6.5,3.4c2.2,1.6,4.8,3.4,7.2,4.9c0.1,0.1,0.2,0.2,0.3,0.3
				C382.8,163.8,375.4,168.7,374.6,175.3L374.6,175.3z M476.9,227.3c0.1,0.3,0.2,0.6,0.2,0.7c0,0,0,0.1,0,0.1c0,0,0,0,0,0
				c-0.4,0-1.3-0.4-2.4-1.3c-1.3-1.6-2.5-2.9-3.5-3.8c-1.7-2.5-3.4-5.8-4.3-9.9c-1.7-2.1-2.8-6.8-3.8-9.3c-0.7-1.9-1.2-3.2-2.9-4.5
				c-1.6-1.2-3.8-1.3-5.3-2.3c4.1,2.8,6.9,7.5,8.8,11.9c1.1,2.5,1.7,4.6,1.7,4.6c0.6,2.4,1.4,4.6,2.3,6.5l-3.2,4.8l-5.5-1.8
				c0-0.8,0.1-1.5,0.1-2.2c0-7.3-2.9-15.6-8.1-21c-2.7-2.8-13.3-7.4-11.3-12.3c1.7-4.4,11.9-2,15.4-1.2c7.4,1.7,16.4,7.2,22.4,11.8
				c-0.2,2.1-1.1,13-1.1,21.1C476.2,222.7,476.3,225.7,476.9,227.3L476.9,227.3z M410.7,325C410.7,325,410.7,325,410.7,325
				C410.7,325,410.7,325,410.7,325C410.7,325,410.7,325,410.7,325L410.7,325z M392.4,305.6c4.8-1.6,10.3-3,14.9-5.2
				c1.5-0.7,3-1.8,4.4-2.4c1.2,2.3,0.5,5.9,0.3,8.4c-0.3,3-2.4,5.7-4.5,7.7c-4,3.8-9.8,5.7-15.2,5.4c-5.3-0.2-9.8-2.1-14.3-4.8
				c-4.4-2.7-7.5-5.3-9.5-7.3c-0.5-0.5-0.9-0.9-1.2-1.3c2.4,1.4,5.6,2.4,9.8,2.4C381.8,308.5,387.3,307.3,392.4,305.6L392.4,305.6z
				 M455,304.1c5.1-9.4,5.8-18.7,5.9-20.7c0.8,0.8,1.8,2.6,2.1,3.1c0.7,1.2,0.9,2.6,1.3,3.9c0.9,3.8,2.6,7.1,3.5,10.9l0.8-2.5
				c0,0,1.7-5.1,4.3-11c1.8-4,3.7-8,6.2-11.6c1-1.4,2.2-2.3,3.4-3.5c0.2-0.2,0.4-0.4,0.5-0.6c-0.5,5.8-2,11.9-5,18.2
				c-9,18.8-27.1,27.5-42.4,31.4C445.2,317.7,451.3,310.9,455,304.1L455,304.1z M344.7,290.5c1.4-0.7,2.5-2,3.8-2.8
				c1.4-0.8,2.6,0.3,3.7,1.2c3,2.7-0.9,5-1.8,7.6C349,293.9,345,290.3,344.7,290.5L344.7,290.5z M412,349.7c0.2-1.1-3.9-4.6-4.7-5.3
				c-1.9-1.8-3.9-3.6-6-5.2c-1.8-1.5-3.7-2.9-5.6-4.3c-1.5-1.1-3.4-3.9-5.4-3.8c2,2.5,4.7,5.3,6.1,8.1c0.8,1.5,1.4,3.2,1.6,4.9
				c0.1,1.1-0.7,4.2-0.4,4.9c-1.7-3.3-4.2-5-6.6-7.7c-2.4-2.7-4.8-5.4-7.4-7.9c-5.1-5.1-10.5-9.9-16.5-14
				c-15.9-10.9-16.1-18.4-16.1-18.9c0-4.4,2.3-7,4.6-8.5c1.3-0.9,2.7-0.8,4.3-0.5c2.9,0.6,5.6,3.5,7.9,5.3c3,2.3,6.1,4.5,9.3,6.5
				c2.6,1.6,4.7,2.5,6.6,2.9c-2.6,0.6-4.8,0.9-6.9,0.9c-4.3,0-9.2-1.3-12-4.6c-1.1-1.3-1.6-2.9-2.5-4.3c-0.5-0.6-1-1.3-1.7-1.7
				c-0.6-0.3-1.7-0.1-2.2-0.4c3.9,2.6,3.8,7.2,5.8,10.7c8.1,14.4,24.5,22.9,39.5,28.3c7.3,4.1,8.5,9.4,8.5,12.6
				C412.2,348.5,412.1,349.2,412,349.7L412,349.7z M511.4,287.8c-0.1-0.1-0.2-0.2-0.3-0.3c-2-2.1-4.8-2.7-7.5-3.3
				c-2.6-0.5-4.6,0.8-6.8,1.8c-0.6,0.3-1.2,0.3-1.6,1c0.2-0.4,3.3-0.5,3.9-0.6c1.4-0.2,2.8-0.3,4.2-0.4c2.3-0.1,4.6,0.5,6.4,2.1
				c1.7,1.5,2.4,3.7,2.4,5.9c0,1-0.1,1.8-0.3,2.4c-1.3-0.9-4-2.3-7.5-2.3c-3.9,0-8.7,1.8-13.5,8c-18.8,24.7-46.6,29.2-64.3,29.2
				c-4.3,0-8.6-0.2-12.8-0.8c-1.7-0.2-3.1-1-4.7-1.2c-1.9-0.3-3.9,0.1-5.8,0.1c5.6,2.9,10.5,7.4,10.5,14.1c0,0.9-0.1,1.8-0.2,2.6
				c-0.4-3.6-2.4-8.6-9.2-12.4l-0.1,0l-0.1,0c-19.6-7.1-29.8-15.7-35.2-22.5c-1-1.3-1.9-2.5-2.6-3.7c2.1,3.5,7.5,6.6,10.9,8.6
				c6.9,4.1,14.1,6.5,21.9,8.5c8.1,2.1,16,2.4,24.2,2.2c0.9,0,1.7,0,2.5-0.1l0-0.2c19.1-1.8,50-9,59.8-35.8c0.7-1.1,1.6-2.3,2.5-3.4
				c4-4.8,10-9.5,18.1-9.5c3.9,0,8.4,1.1,13.5,4C516.5,283.1,512.7,286.6,511.4,287.8L511.4,287.8z M494.1,268.1
				c1-1.6,4-2.2,5.7-2.8c1.5-0.5,2.6,0,4.1,0.2c1.5,0.2,3.1,0.2,4.5,0.7c0.1,0-2.1,2.8-2.3,3.1c-1.6,1.9-3.9,2.1-5.8,3.3
				c-1.9,1.2-3.3,3.3-4.4,5.3c1.4-1.1,3.2-1.8,4.6-2.8c1.4-1.1,3.4-1.5,5.1-1.6c1.2-0.1,2.5,0,3.7,0c2.3,0,5,0.3,6.8,1.7
				c1.7,1.3,3.1,3.3,4.2,5.2c-5.1-2.8-9.7-3.9-13.8-3.9c-7.3,0-12.9,3.5-16.9,7.6c0.3-1,0.4-2,0.6-2.7c0.6-2.2,1.2-4.3,1.9-6.5
				C492.7,272.6,492.9,270,494.1,268.1L494.1,268.1z M478.1,229.1c0.1-0.1,0.1-0.2,0.1-0.2c1.3,1.6,3.6,4.6,6,8.7
				c2.3,4.1,4.3,8.5,5.6,13.1c1.2,4.4,1.4,8.8,1.8,13.4c0.2,2.4-0.3,4.8-0.7,7.2c-0.7,4.8-0.5,11.3-3.8,15.3
				c1.8-6.6,2.6-12.8,2.6-18.5c0-17.5-7.1-30.6-13-38.5c0.1,0,0.2,0,0.3,0C477.4,229.5,477.8,229.4,478.1,229.1L478.1,229.1z
				 M426.3,132.9c2.7-1.9,6.7-1.8,9.8-1.1c0.4,0.1,3.2-2.6,3.9-2.9c4.2-2.2,8.6-0.6,13-0.6c8,0,14.8-3.2,22.4-5
				c3.1,6.5,11.1,6.2,17,5.8c0.2,0.4,0.7,1.1,1.1,2c0.7,1.4,1.3,3.4,1.3,5.7c0,7-6.7,6.9-9.9,11.5c0.6-0.9,7.9,0.8,9,1.2
				c2.8,1.1,6.7,3.6,7.2,6.8c0.2,1.2,1,4.2-0.4,4.7c-0.6,0.2-1.1-0.1-1.7,0.2c-0.4,0.2-0.9,0.7-1.2,1.1c-0.7,0.8-0.9,1.8-0.7,2.9
				c0-0.2,2.1,1.2,2.3,1.3c0.6,0.5,1.3,0.9,1.8,1.5c1.7,1.7,2.7,4,3.2,6.4c0.9,3.9,1.4,9.3,2.2,13.9c0.6,3.2,1,7.4,3.7,9.6
				c-3.2,0.8-7.6-0.1-10.7-1.1c-2.2-0.7-8.7-4.3-8.6-7.2c-0.3,5.5,3.8,8.1,8.4,9.2c-0.2,0.9-0.2,1.8-0.8,2.8
				c-6.7,10.4-21.1-6.3-26.6-10.5c-3.2-2.5-6.7-4.5-10-7c-3.8-2.9-7.3-5.7-11.5-8c-2.5-1.4-8.2-4.6-4.6-7.9c2.9-2.7,9.2-2.7,12.9-3
				c3.3-0.2,6.7-0.4,10-0.3c10.9,0.3,23.4,5.4,32,11.8c-0.6-10.3-16.7-18.1-25.4-19c-10.5-1.1-32.4-5.6-39.5,4.7
				c11.3-17,30-23.4,50.1-22.9c-7.4-2.2-16.5-1.8-24.1-1.3c-4.7,0.3-9.9,0.5-14.2,2.5c-4,1.9-7,5.5-10.6,8.1
				c0-10.2,7.6-13.6,13.7-20.3c-13.8,2.6-26.3,17.3-32.3,29.2C417.8,149.6,419.2,137.9,426.3,132.9L426.3,132.9z M397.4,148.8
				c3.5,3.4,8,6.7,11.9,10.5c3.4,3.3,6.5,6.8,8,11c1.5,3.9,2.2,7.3,2,11.6c0.1-0.9-13.6-10.1-15-11.3c-1.4-1.2-3.1-2.4-4.9-3.4
				c-3.1-2.1-5.4-3.8-6-4.3c-9.6-8.3-16.9-18.1-29.1-23.3c-8.6-3.7-19.3-0.2-19.9-12.4c-5.8,2.8-6.1,11.1-6.8,16.7
				c-0.5,4.3-0.8,8.3-0.9,9.9c-1-0.1-2.9-0.4-5-0.9c-3.6-0.9-9-2.6-10-6.7c-1.1-4.5,3.1-6.1,5.9-2.5c-1.3-1.6,4.9-12.2,6.1-13.7
				c3.3-3.8,10.2-5.2,15.1-5.2c6.3,0,11.9,2,16.9,5.8c5.2,4.1,9.6,8.9,14,13.8c7.8,8.6,16.7,16.4,26.1,23.3l0.9-1.2
				c-25-18.4-38.4-37.1-45.5-51.1c-3.6-7-5.6-12.9-6.7-17c-1.1-4.1-1.3-6.4-1.3-6.4l0-0.1l0-0.1c-0.5-2-0.8-4.1-0.8-6.2
				c0-5.2,1.3-8.9,3.6-13.3c0.8-1.5,8-13.6,7.8-14c2.9,4.9,0.2,14.5-1.6,19.7c1.2-3.4,3.7-7.5,5.8-10.6c1.2-1.8,2.7-3.3,4-5
				c4.1-5.1,9.6-5,15.6-3.7c1.4,0.3,14.9,4,15.4,2.6c-1.9,5.2-7.6,8.6-13.1,10.7c-5.9,2.2-12.3,1.4-18,3.7
				c4.9-0.2,13.4,5.1,11.8,10.8c-3.6-0.5-7.1-1.9-10.9-2c-0.7,0-7.9,0.8-7.7,1.8c-0.5-3.5,1.3-6.8,3.2-9.6c-1.8,2.6-5.5,3.1-7.1,6.5
				c-1.4,2.8-1.5,5.9-1.4,8.9c0.3,9.4,4.2,18.3,9.5,25.8c1.7,2.4,3.5,4.9,5.4,7.2C382.2,133.2,389.6,141.2,397.4,148.8z"/>
			<polygon fill-rule="evenodd" clip-rule="evenodd" fill="#FFFFFF" points="391.4,333.4 391.4,333.4 391.4,333.4 			"/>
		</g>
	</g>
	<text transform="matrix(1 0 0 1 298.4505 599.3729)"><tspan x="0" y="0" fill="#FFFFFF" font-family="'Ebrima'" font-size="37.8392">S</tspan><tspan x="20.1" y="0" fill="#FFFFFF" font-family="'Ebrima'" font-size="37.8392">INCE 1992</tspan></text>
</g>
</svg>
