<?xml version="1.0" encoding="utf-8"?>
<!-- Generator: Adobe Illustrator 17.1.0, SVG Export Plug-In . SVG Version: 6.00 Build 0)  -->
<!DOCTYPE svg PUBLIC "-//W3C//DTD SVG 1.1//EN" "http://www.w3.org/Graphics/SVG/1.1/DTD/svg11.dtd">
<svg version="1.1" id="Layer_1" xmlns="http://www.w3.org/2000/svg" xmlns:xlink="http://www.w3.org/1999/xlink" x="0px" y="0px"
	 viewBox="0 0 48 48" enable-background="new 0 0 48 48" xml:space="preserve">
<path fill="none" d="M-838-568H562v3600H-838V-568z M0,0h48v48H0V0z"/>
<g>
	<polygon fill-rule="evenodd" clip-rule="evenodd" fill="#FFFFFF" points="8.3,12.9 40.3,12.9 46,41.3 45.4,44.4 44.4,45.6 
		5.2,45.7 3.8,44.5 3.1,41.2 	"/>
	
		<circle fill-rule="evenodd" clip-rule="evenodd" fill="#000003" stroke="#000003" stroke-width="0.5669" stroke-miterlimit="22.9256" cx="13.7" cy="16.7" r="1.3"/>
	
		<circle fill-rule="evenodd" clip-rule="evenodd" fill="#000003" stroke="#000003" stroke-width="0.5669" stroke-miterlimit="22.9256" cx="34.4" cy="17.1" r="1.3"/>
	
		<path fill-rule="evenodd" clip-rule="evenodd" fill="none" stroke="#FFFFFF" stroke-width="0.7087" stroke-miterlimit="22.9256" d="
		M13.8,16.9c1.1-3.1,1-5.3,0.9-7c-0.1-1.9,0-1.4,0.3-3.9c0.4-2.7,5-3.5,9.1-3.8c4.2,0.2,7.8,1.1,8.6,3.6c0.8,2.6,0.8,2.5,0.4,4.7
		c-0.4,2,0,4.2,1.6,6.7"/>
	<g>
		<g>
			<g>
				<path fill-rule="evenodd" clip-rule="evenodd" fill="#861100" d="M18.8,32.8c0,0,0.1-0.1,0.1-0.1c0,0,0.1-0.1,0.1-0.1
					c0,0,0-0.1,0-0.1c0-0.1,0-0.1-0.1-0.1c-0.1,0-0.1,0-0.1,0l0,0c0,0,0,0-0.1,0.1c0,0.1-0.1,0.1-0.2,0.3c-0.1,0.1-0.2,0.3-0.3,0.4
					c-0.1,0.2-0.2,0.3-0.4,0.5c-0.1,0.2-0.3,0.4-0.4,0.5c-0.1,0.1-0.1,0.1-0.1,0.2c0,0,0,0,0.1,0.1c0,0,0.1,0.1,0.1,0.1
					c0,0,0.1,0,0.1,0c0.1-0.1,0.2-0.3,0.3-0.4c0.1-0.1,0.2-0.3,0.3-0.4c0.1-0.1,0.2-0.3,0.3-0.4c0.1-0.1,0.2-0.2,0.4-0.3
					c0.1-0.1,0.2-0.1,0.3-0.2c0.1-0.1,0.2-0.1,0.3-0.1c0.1,0,0.1,0,0.2,0c0,0,0.1,0,0.1,0.1c0,0,0,0,0.1,0.1c0,0,0,0,0,0
					c0,0,0,0,0,0c0,0,0-0.1,0.1-0.1c0-0.1,0.1-0.1,0.1-0.2c0,0,0-0.1-0.1-0.1c0,0-0.1,0-0.2,0c-0.1,0-0.2,0-0.3,0.1
					c-0.1,0-0.2,0.1-0.4,0.2c-0.1,0.1-0.2,0.1-0.4,0.2c-0.1,0.1-0.2,0.1-0.3,0.2c0,0,0,0-0.1,0C18.7,33,18.7,33,18.8,32.8
					C18.7,32.9,18.7,32.9,18.8,32.8z"/>
				<path fill-rule="evenodd" clip-rule="evenodd" fill="#861100" d="M30.1,31.7c-0.1,0-0.2,0-0.3,0.1c-0.1,0.1-0.1,0.2-0.1,0.2
					c0,0.1,0,0.1,0.1,0.1c0.1,0,0.2,0,0.3-0.1c0.1-0.1,0.1-0.2,0.1-0.2C30.3,31.8,30.2,31.7,30.1,31.7L30.1,31.7z"/>
				<path fill-rule="evenodd" clip-rule="evenodd" fill="#861100" d="M27.8,35.6C27.9,35.6,27.9,35.6,27.8,35.6
					C27.9,35.7,27.9,35.7,27.8,35.6c0.1,0.1,0.1,0.1,0.1,0.1c0,0,0-0.1,0.1-0.1c0-0.1,0.1-0.1,0.1-0.1c0,0,0-0.1-0.1-0.1
					c0,0-0.1,0-0.2,0c-0.1,0-0.2,0-0.3,0.1c-0.1,0-0.2,0.1-0.3,0.1c-0.1,0.1-0.2,0.1-0.3,0.2c-0.1,0.1-0.2,0.1-0.2,0.2c0,0,0,0,0,0
					c0,0,0,0,0,0c0,0,0,0,0.1-0.1c0,0,0.1-0.1,0.1-0.1c0,0,0.1-0.1,0.1-0.1c0,0,0-0.1,0-0.1c0-0.1,0-0.1-0.1-0.1c-0.1,0-0.1,0-0.1,0
					c0,0,0,0-0.1,0.1c0,0-0.1,0.1-0.1,0.2c-0.1,0.1-0.2,0.2-0.3,0.4c-0.1,0.1-0.2,0.3-0.3,0.4c-0.1,0.2-0.2,0.3-0.3,0.5
					c0,0.1-0.1,0.1-0.1,0.1c0,0,0,0,0.1,0.1c0,0,0.1,0.1,0.1,0.1c0,0,0.1,0,0.1,0c0.1-0.1,0.2-0.2,0.3-0.4c0.1-0.1,0.2-0.2,0.2-0.3
					c0.1-0.1,0.2-0.2,0.3-0.3c0.1-0.1,0.2-0.2,0.3-0.3c0.1-0.1,0.2-0.1,0.3-0.2c0.1,0,0.2-0.1,0.3-0.1
					C27.7,35.5,27.7,35.5,27.8,35.6C27.8,35.6,27.8,35.6,27.8,35.6z"/>
				<path fill-rule="evenodd" clip-rule="evenodd" fill="#861100" d="M37.5,37.6c-0.1,0.3-0.3,0.5-0.6,0.6c-0.2,0.1-0.5,0.2-0.8,0.2
					c-0.2,0-0.4,0-0.6-0.1c-0.3-0.1-0.5-0.2-0.8-0.3c-0.3-0.1-0.6-0.3-1-0.4c-0.3-0.2-0.7-0.3-1-0.5c0,0-0.1,0-0.1-0.1c0,0,0,0,0,0
					c0.2-0.1,0.8-0.5,1.2-0.7c0.2,0.1,0.3,0.2,0.5,0.2c0,0,0.3,0.1,0.3,0.1c-0.1,0.1-0.1,0.2-0.2,0.3c-0.1,0.2-0.2,0.4-0.2,0.6
					c0,0.3,0.2,0.4,0.5,0.4c0.2,0,0.4,0,0.7-0.1c0.2-0.1,0.4-0.2,0.7-0.3c0.2-0.1,0.4-0.2,0.6-0.4c0.2-0.1,0.3-0.3,0.5-0.4
					c0,0,0,0,0,0c0,0,0,0-0.1,0c-0.1,0.1-0.2,0.2-0.4,0.3c-0.1,0.1-0.3,0.2-0.5,0.3c-0.2,0.1-0.4,0.2-0.5,0.3
					c-0.2,0.1-0.4,0.1-0.5,0.1c-0.3,0-0.4-0.1-0.4-0.4c0-0.1,0-0.2,0.1-0.4c0-0.1,0.1-0.2,0.1-0.3c0.2,0,0.4,0,0.6-0.1
					c0.2-0.1,0.3-0.1,0.4-0.2c0.1-0.1,0.2-0.2,0.3-0.3c0.1-0.1,0.1-0.2,0.1-0.2c0-0.1,0-0.1-0.1-0.1c0,0-0.1,0-0.2,0
					c-0.2,0-0.4,0.1-0.6,0.2c-0.2,0.1-0.4,0.3-0.6,0.4c-0.1,0.1-0.1,0.1-0.2,0.2c0,0-0.2-0.1-0.3-0.1c-0.2-0.1-0.3-0.2-0.4-0.2
					c0.1-0.1,0.2-0.2,0.3-0.2c0.2-0.2,0.4-0.3,0.6-0.4c0.1-0.1,0.2-0.1,0.3-0.2c0.1-0.1,0.2-0.2,0.3-0.2c0,0,0-0.1,0-0.1
					c0,0-0.1,0-0.1,0c-0.1,0.1-0.3,0.2-0.4,0.3c-0.2,0.1-0.3,0.1-0.5,0.1c-0.1,0-0.2,0-0.3-0.1c-0.1-0.1-0.1-0.1-0.1-0.2
					c0-0.1,0-0.2,0.1-0.2c0,0,0,0,0,0c0,0,0,0,0,0c-0.1,0.1-0.2,0.1-0.3,0.2c-0.1,0.1-0.1,0.1-0.1,0.2c0,0.1,0.1,0.2,0.2,0.3
					c0.1,0.1,0.2,0.1,0.3,0.1c0,0,0.1,0,0.1,0c0.1,0,0.1,0,0.2,0c0.1,0,0.1,0,0.2,0c0.1,0,0.1,0,0.1,0c0,0,0,0,0,0
					c0,0-0.1,0.1-0.2,0.1c-0.1,0.1-0.3,0.2-0.5,0.3c0,0-0.1,0.1-0.2,0.1c0,0,0,0-0.1,0c-0.2-0.1-0.4-0.2-0.6-0.3
					c-0.1,0-0.3-0.1-0.4-0.1c-0.1,0-0.3,0-0.4,0.1c-0.1,0.1-0.1,0.2-0.2,0.3c0.1-0.1,0.4-0.2,0.5-0.2c0.2,0,0.5,0.1,0.7,0.2
					c0.1,0,0.1,0.1,0.2,0.1c-0.4,0.2-0.9,0.6-1.1,0.7c-0.3,0.1-0.5,0.3-0.8,0.4c-0.1,0-0.1,0.1,0,0.1c0,0,0.1,0,0.1,0
					c0.1,0,0.1-0.1,0.1-0.1c0,0,0.1,0,0.1-0.1c0,0,0.1,0,0.1,0c0,0,0,0,0.1,0c0.3,0.2,0.7,0.4,1,0.5c0.3,0.2,0.6,0.3,0.9,0.4
					c0.3,0.1,0.6,0.2,0.9,0.3c0.3,0.1,0.6,0.1,0.9,0.1c0.2,0,0.4,0,0.6-0.1c0.2-0.1,0.3-0.1,0.5-0.2c0.1-0.1,0.2-0.2,0.3-0.3
					C37.5,37.8,37.6,37.7,37.5,37.6C37.6,37.6,37.6,37.6,37.5,37.6L37.5,37.6z M35.7,35.8c0.1,0,0.2-0.1,0.2-0.1
					c0.1,0,0.2,0,0.2,0.1c0,0.2-0.1,0.3-0.3,0.5c-0.1,0.1-0.3,0.2-0.5,0.2c0,0-0.1,0-0.2,0c0,0,0,0,0,0c0,0-0.1,0-0.1,0c0,0,0,0,0,0
					c0-0.1,0.1-0.2,0.2-0.3c0.1-0.1,0.1-0.2,0.2-0.2C35.5,35.9,35.6,35.8,35.7,35.8z"/>
				<path fill-rule="evenodd" clip-rule="evenodd" fill="#861100" d="M25.2,37c-0.1,0-0.2-0.1-0.3-0.1c-0.1,0-0.2,0-0.3-0.1
					c0,0,0,0,0,0c0,0,0,0,0,0c0.3-0.1,0.5-0.1,0.7-0.2c0.2-0.1,0.4-0.2,0.5-0.3c0.1-0.1,0.2-0.2,0.3-0.3c0.1-0.1,0.1-0.2,0.1-0.3
					c0-0.2,0-0.3,0-0.4c-0.1-0.1-0.2-0.2-0.3-0.2c-0.1-0.1-0.3-0.1-0.5-0.1c-0.2,0-0.5,0-0.8,0c-0.1,0-0.2,0-0.2,0
					c-0.1,0-0.3,0-0.5,0c0,0-0.1,0-0.1,0c-0.1,0-0.3,0-0.4,0C23,35,22.7,35,22.5,35c0,0,0,0,0,0c-1.1,0.2-2.4,0.5-3.4,1.2
					c-0.1-0.1-0.2-0.2-0.4-0.3c-0.7-0.5-1.2-1-1.6-1.4c-0.4-0.4-0.8-0.8-1.1-1.2c0,0,0,0,0-0.1c0.2-0.1,0.5-0.3,0.7-0.4
					c0.3-0.1,0.5-0.3,0.7-0.4c0.4-0.2,0.8-0.4,1.1-0.5c0.3-0.1,0.5-0.3,0.7-0.3c0.2-0.1,0.3-0.2,0.5-0.2c0.1,0,0.2-0.1,0.2-0.1
					c0,0,0,0,0,0c-0.1,0-0.1,0-0.2,0c-0.1,0-0.1,0-0.1,0h0c0,0-0.1,0.1-0.3,0.2c-0.2,0.1-0.4,0.2-0.6,0.3c-0.2,0.1-0.4,0.2-0.6,0.3
					c-0.2,0.1-0.3,0.2-0.4,0.2c-0.3,0.2-0.7,0.4-1.1,0.6c-0.4,0.2-0.8,0.4-1.2,0.6c0,0-0.1,0-0.1,0c0,0,0,0,0-0.1
					c0.3-0.4,0.5-0.7,0.8-1c0.2-0.3,0.4-0.6,0.6-0.8c0-0.1,0.1-0.1,0.1-0.1c0.1,0,0.2,0,0.2,0c0.1,0,0.2,0,0.2,0c0,0,0-0.1,0-0.1
					c-0.3,0-0.6,0-0.8,0c-0.2,0-0.4,0-0.7,0c-0.1,0-0.1,0-0.2,0c-0.1,0-0.1,0-0.1,0l-0.9,0c-1.6,0-3.9,0.2-4.8,1.2l0,0.3
					c0.9-1.1,3.4-1.4,4.9-1.4c0.6,0,1.1,0,1.2,0c-0.1,0.2-0.3,0.5-0.4,0.7c-0.2,0.3-0.3,0.5-0.5,0.8c-0.2,0.3-0.4,0.5-0.5,0.8
					c-0.2,0.3-0.4,0.5-0.5,0.7c-0.2,0.3-0.4,0.5-0.5,0.7c-0.2,0.2-0.3,0.3-0.4,0.5c0,0,0,0,0.1,0l0.7-0.2l0.1-0.1c0,0,0-0.1,0.1-0.1
					c0.2-0.3,0.4-0.5,0.6-0.8c0.2-0.3,0.4-0.6,0.6-0.9c0,0,0.1-0.1,0.1-0.1c0,0,0,0,0.1,0c0.3,0.3,0.6,0.6,0.9,1
					c0.3,0.3,0.7,0.6,1,0.9c0.3,0.3,0.7,0.6,1,0.8c0.2,0.1,0.3,0.2,0.4,0.3c-0.6,0.5-1.2,1.3-1.4,2.3l0.1,0.1l0.1,0.2
					c0.2-1.1,0.8-1.8,1.4-2.4c0.1,0,0.1,0,0.2,0.1c0.3,0.1,0.6,0.2,0.8,0.2c0.3,0,0.5,0.1,0.7,0.1c0.4,0,0.7,0,1.1-0.1
					c0.3-0.1,0.6-0.2,0.8-0.3c0,0,0,0,0,0c0,0,0-0.1-0.1,0c-0.2,0.1-0.4,0.2-0.7,0.3c-0.3,0.1-0.6,0.1-0.9,0.1c-0.2,0-0.4,0-0.6,0
					c-0.2,0-0.3-0.1-0.5-0.1c-0.2-0.1-0.4-0.2-0.6-0.3c0,0,0,0,0,0c1-0.7,2.2-1.1,3.2-1.3c0.6-0.1,1.2-0.1,1.6-0.2c0,0,0,0,0,0
					c0,0,0,0,0,0c-0.1,0.1-0.2,0.2-0.3,0.4c-0.1,0.1-0.2,0.3-0.3,0.4c-0.1,0.1-0.2,0.3-0.3,0.4c-0.1,0.1-0.2,0.3-0.3,0.4
					c-0.1,0.1-0.2,0.3-0.3,0.4c-0.1,0.2-0.3,0.3-0.4,0.5c-0.2,0.3-0.4,0.5-0.6,0.8c0,0,0.3,0,0.4-0.1c0.1-0.1,0.2-0.2,0.3-0.3
					c0.3-0.3,0.5-0.7,0.8-1c0.3-0.4,0.6-0.8,0.9-1.2c0.1-0.1,0.2-0.2,0.3-0.3c0.1-0.1,0.2-0.2,0.3-0.3c0.1-0.1,0.1-0.1,0.2-0.1
					c0,0,0,0,0,0l0,0l0,0c0.1,0,0.1,0,0.2,0c0.1,0,0.2,0,0.3,0c0.1,0,0.2,0,0.3,0.1c0.1,0,0.1,0.1,0.2,0.2c0,0.1,0,0.2,0,0.3
					c0,0.1-0.1,0.3-0.2,0.4c-0.1,0.1-0.2,0.2-0.3,0.3c-0.1,0.1-0.2,0.2-0.4,0.3c-0.1,0.1-0.3,0.1-0.4,0.2c-0.1,0-0.1,0-0.2,0
					c-0.1,0-0.1,0-0.2,0c-0.1,0-0.1,0-0.2,0c-0.1,0-0.1,0-0.2,0c0,0-0.1,0-0.1,0c0,0,0,0,0,0.1c0,0,0,0.1,0,0.1c0,0,0,0,0,0
					c0.1,0,0.2,0,0.3,0c0.1,0,0.2,0,0.3,0c0.3,0,0.5,0.1,0.6,0.2c0.1,0.1,0.2,0.2,0.1,0.4c0,0.2-0.1,0.4-0.3,0.6
					c-0.1,0.2-0.3,0.3-0.5,0.4c-0.2,0.1-0.4,0.2-0.7,0.3c-0.2,0-0.3,0-0.5,0c-0.6,0-1.2-0.2-1.8-0.4l-0.1,0.1c0.1,0,0.3,0.1,0.4,0.2
					c0.5,0.2,0.9,0.3,1.4,0.3c0.3,0,0.6,0,0.9-0.1c0.3-0.1,0.5-0.2,0.7-0.3c0.2-0.1,0.4-0.3,0.5-0.5c0.1-0.2,0.2-0.3,0.2-0.5
					c0-0.1,0-0.2,0-0.3C25.3,37.1,25.3,37,25.2,37z"/>
				<path fill-rule="evenodd" clip-rule="evenodd" fill="#861100" d="M32.5,36.6C32.5,36.5,32.5,36.5,32.5,36.6
					c-0.1-0.1-0.2,0.1-0.3,0.1c-0.1,0.1-0.1,0.2-0.3,0.2C31.8,37,31.7,37,31.6,37c-0.1,0-0.1,0-0.2,0c0,0-0.1-0.1-0.1-0.1
					c0-0.1,0-0.2,0.1-0.3c0.1-0.1,0.2-0.3,0.3-0.5c0.1-0.2,0.2-0.3,0.3-0.5c0.1-0.1,0.2-0.3,0.3-0.4c0,0,0.1-0.1,0.1-0.1
					c0,0,0,0,0-0.1c0,0-0.1,0-0.1,0c0,0-0.1,0-0.2,0.1c-0.1,0.1-0.2,0.1-0.4,0.2c-0.2,0.1-0.3,0.2-0.5,0.3c-0.2,0.1-0.3,0.2-0.5,0.3
					c0.1-0.2,0.2-0.3,0.3-0.5c0.1-0.1,0.2-0.2,0.2-0.2c0,0,0-0.1-0.1-0.1c0,0-0.1,0-0.1,0c0,0-0.1,0-0.1,0c-0.1,0.2-0.2,0.4-0.3,0.6
					c0,0,0,0.1-0.1,0.1c0,0,0,0,0,0c-0.1,0.1-0.3,0.1-0.4,0.1c-0.2,0-0.3,0-0.4-0.2c-0.1-0.1-0.1-0.2-0.1-0.4c0-0.1,0-0.2,0-0.3
					c0-0.1,0-0.2,0.1-0.2c0,0,0,0,0,0c0,0,0,0,0,0c0,0,0,0,0,0c0,0-0.1,0-0.1,0c0,0-0.1,0-0.1,0c-0.1,0-0.1,0-0.1,0.1
					c0,0.1,0,0.1,0,0.2c-0.2,0-0.4,0.1-0.6,0.2c-0.2,0.1-0.3,0.2-0.4,0.3c-0.1,0.1-0.1,0.1-0.2,0.2c-0.1,0.1-0.1,0.2-0.2,0.3
					c-0.1,0.1-0.1,0.2-0.1,0.3c0,0.1,0,0.2,0,0.3c0,0.2,0.1,0.3,0.4,0.3c0.1,0,0.2,0,0.3-0.1c0.1-0.1,0.3-0.1,0.4-0.2
					c0.1-0.1,0.2-0.2,0.3-0.3c0.1-0.1,0.2-0.2,0.2-0.3c0.1-0.1,0.1-0.2,0.2-0.3c0.1,0.1,0.2,0.2,0.3,0.2c0.1,0,0.2,0.1,0.3,0.1
					c0.2,0,0.3,0,0.5-0.1c-0.1,0.1-0.2,0.3-0.2,0.4c-0.1,0.1-0.2,0.2-0.3,0.3c-0.1,0.1-0.1,0.2-0.1,0.2c0,0,0,0.1,0,0.1
					c0,0.1,0.1,0.1,0.1,0.1c0,0,0,0,0.1-0.1c0.1-0.2,0.2-0.3,0.3-0.4c0.1-0.1,0.2-0.3,0.3-0.4c0.1-0.1,0.2-0.1,0.3-0.2
					c0.1-0.1,0.2-0.2,0.3-0.2c0.1-0.1,0.2-0.2,0.3-0.2c0.1-0.1,0.2-0.1,0.3-0.2c0,0,0.1,0,0.1,0c0,0,0,0,0,0.1
					c-0.1,0.1-0.2,0.3-0.3,0.4c-0.1,0.2-0.2,0.3-0.3,0.4c-0.1,0.1-0.2,0.3-0.3,0.4C31,36.7,31,36.8,31,36.9c0,0.1,0,0.1,0.1,0.2
					c0.1,0,0.2,0,0.2,0c0.2,0,0.4,0,0.6-0.1C32,37,32.7,36.7,32.5,36.6L32.5,36.6z M29.2,35.9c-0.1,0.1-0.2,0.3-0.3,0.4
					c-0.1,0.1-0.2,0.3-0.3,0.4c-0.1,0.1-0.2,0.2-0.4,0.2c-0.1,0-0.1,0-0.1-0.1c0,0,0-0.1,0-0.1c0-0.1,0-0.3,0.1-0.4
					c0.1-0.1,0.1-0.3,0.2-0.4c0.1-0.1,0.1-0.2,0.2-0.3c0.1-0.1,0.1-0.2,0.2-0.2c0.1-0.1,0.1-0.1,0.2-0.2c0.1,0,0.1-0.1,0.2-0.1
					c0,0,0,0,0,0c0,0.1,0,0.1,0,0.2c0,0.1,0,0.1,0,0.2C29.3,35.6,29.3,35.8,29.2,35.9z"/>
				<path fill-rule="evenodd" clip-rule="evenodd" fill="#861100" d="M24.4,32.1L24.4,32.1c1.3,0.2,2.4,0,3.2-0.2
					c-0.1,0.1-0.1,0.1-0.2,0.2c-0.2,0.2-0.3,0.4-0.5,0.7c-0.1,0.2-0.2,0.3-0.3,0.5c-0.1,0.1-0.2,0.1-0.2,0.2
					c-0.1,0.1-0.3,0.2-0.4,0.3c-0.2,0.1-0.3,0.2-0.5,0.3c-0.2,0.1-0.3,0.1-0.4,0.1c-0.1,0-0.2-0.1-0.2-0.2c0-0.1,0-0.2,0.1-0.4
					c0.1-0.2,0-0.1,0.1-0.3c0.1-0.2,0.2-0.3,0.3-0.5c0.1-0.2,0.2-0.3,0.2-0.3c0,0,0,0,0-0.1c0,0,0,0,0-0.1c0-0.1-0.1-0.1-0.2-0.1
					c-0.1,0-0.2,0.1-0.4,0.2c-0.1,0.1-0.3,0.2-0.4,0.2c-0.1,0.1-0.3,0.2-0.4,0.3c-0.1,0.1-0.2,0.2-0.3,0.3c0,0,0,0,0,0c0,0,0,0,0,0
					c0.1-0.1,0.1-0.2,0.2-0.3c0.1-0.1,0.1-0.2,0.1-0.3c0-0.1,0-0.1-0.1-0.1c-0.1,0-0.3,0.1-0.5,0.2c-0.2,0.1-0.5,0.4-0.8,0.7
					c0.1-0.2,0.2-0.3,0.3-0.5c0.1-0.2,0.2-0.3,0.3-0.5c0,0,0-0.1,0-0.1c-0.1-0.1-0.2-0.1-0.3,0c-0.1,0-0.7,0.4-0.5,0.5
					c0.1,0,0.2-0.1,0.2-0.2c0-0.1,0.1-0.1,0.2-0.1c0.1,0,0,0.1,0,0.2c-0.1,0.2-0.2,0.3-0.3,0.5c-0.1,0.1-0.1,0.2-0.2,0.2
					c0,0-0.1,0-0.1,0.1c-0.1,0.1-0.3,0.2-0.5,0.3c-0.2,0.1-0.4,0.2-0.5,0.3c-0.2,0.1-0.4,0.1-0.5,0.1c-0.3,0-0.4-0.1-0.4-0.4
					c0-0.1,0-0.2,0.1-0.4c0-0.1,0.1-0.2,0.1-0.3c0.2,0,0.5,0,0.6-0.1c0.2-0.1,0.3-0.1,0.4-0.2c0.1-0.1,0.2-0.2,0.3-0.3
					c0.1-0.1,0.1-0.2,0.1-0.2c0-0.1,0-0.1-0.1-0.1c0,0-0.1,0-0.2,0c-0.2,0-0.4,0.1-0.6,0.2c-0.2,0.1-0.4,0.3-0.6,0.4
					c-0.2,0.2-0.3,0.4-0.4,0.6c-0.1,0.2-0.2,0.4-0.2,0.6c0,0.3,0.2,0.4,0.5,0.4c0.2,0,0.4,0,0.7-0.1c0.2-0.1,0.4-0.2,0.7-0.3
					c0.2-0.1,0.4-0.2,0.5-0.4c-0.1,0.1-0.2,0.3-0.3,0.4c0,0,0,0.1,0,0.1c0,0,0,0.1,0,0.1c0,0,0,0.1,0.1,0.1c0,0,0.1-0.1,0.2-0.2
					c0.1-0.1,0.2-0.2,0.3-0.3c0.1-0.1,0.2-0.2,0.3-0.3c0.1-0.1,0.3-0.2,0.4-0.4c0.1-0.1,0.3-0.2,0.4-0.3c0.1-0.1,0.2-0.1,0.2-0.1
					c0,0,0,0,0,0.1c0,0,0,0.1,0,0.1c0,0.1-0.1,0.2-0.1,0.3c-0.1,0.1-0.1,0.2-0.2,0.3c-0.1,0.1-0.2,0.2-0.3,0.4
					c-0.1,0.1-0.1,0.1-0.1,0.2c0,0,0,0.1,0,0.1c0,0,0,0.1,0,0.1c0,0,0.1,0,0.1,0c0,0,0.1,0,0.1-0.1c0-0.1,0.1-0.1,0.1-0.2
					c0-0.1,0.1-0.2,0.2-0.3c0.1-0.1,0.1-0.2,0.2-0.2c0.1-0.1,0.1-0.1,0.2-0.2c0.1-0.1,0.2-0.2,0.3-0.3c0.1-0.1,0.2-0.2,0.4-0.3
					c0.1-0.1,0.2-0.1,0.3-0.2c0,0,0.1,0,0.1,0.1c0,0.1,0,0.2-0.1,0.3c-0.1,0.2-0.2,0.3-0.3,0.5c-0.1,0.2-0.1,0.1-0.2,0.3
					c-0.1,0.2-0.1,0.3-0.1,0.3c0,0.1,0,0.2,0.1,0.2c0.1,0.1,0.2,0.1,0.3,0.1c0.2,0,0.3,0,0.5-0.1c0.2-0.1,0.4-0.2,0.5-0.3
					c0.2-0.1,0.3-0.2,0.5-0.4c0,0,0.1-0.1,0.1-0.1c-0.1,0.2-0.2,0.3-0.1,0.4c0,0.1,0,0.2,0.1,0.3c0.1,0.1,0.2,0.1,0.4,0.1
					c0.2,0,0.5,0,0.7-0.1c0.2-0.1,0.5-0.2,0.7-0.3c0.2-0.1,0.4-0.3,0.6-0.4c0,0,0,0,0,0c-0.1,0.1-0.1,0.2-0.1,0.2
					c-0.1,0.1-0.1,0.3-0.1,0.3c0,0.1,0,0.1,0.1,0.2c0,0,0.1,0.1,0.1,0.1c0.1,0,0.1,0,0.2,0c0.1,0,0.1,0,0.2,0c0.1,0,0.3,0,0.4-0.1
					c0.2,0,0.3-0.1,0.5-0.2c0.2-0.1,0.4-0.2,0.7-0.4c0.1-0.1,0.3-0.2,0.4-0.3c-0.1,0.1-0.1,0.2-0.1,0.2c-0.1,0.1-0.2,0.2-0.3,0.3
					c-0.1,0.1-0.1,0.2-0.1,0.2c0,0,0,0.1,0,0.1c0,0.1,0.1,0.1,0.1,0.1c0,0,0,0,0.1-0.1c0.1-0.2,0.2-0.3,0.3-0.4
					c0.1-0.1,0.2-0.3,0.3-0.4c0.1-0.1,0.2-0.1,0.3-0.2c0.1-0.1,0.2-0.2,0.3-0.3c0.1-0.1,0.2-0.2,0.4-0.2c0,0,0.1,0,0.1-0.1
					c0,0.3,0,0.6,0,0.9c0,0.8,0.3,1.9,1.3,2c-0.1-0.2-0.4-0.2-0.6-0.4c-0.3-0.4-0.3-0.9-0.3-1.4l0-1.1c0-0.1-0.1-0.1-0.1-0.1
					c-0.1,0-0.2,0-0.3,0c-0.1,0.1-0.3,0.2-0.4,0.3c-0.2,0.1-0.3,0.2-0.5,0.3c0.1-0.2,0.2-0.4,0.3-0.5c0.1-0.1,0.2-0.2,0.2-0.3
					c0,0,0-0.1-0.1-0.1c0,0-0.1,0-0.1,0c0,0-0.1,0-0.1,0c-0.1,0.2-0.2,0.4-0.3,0.6c0,0.1-0.1,0.1-0.1,0.2c-0.1,0.1-0.2,0.2-0.3,0.3
					c-0.2,0.1-0.3,0.3-0.5,0.4c-0.2,0.1-0.4,0.2-0.5,0.3c-0.2,0.1-0.4,0.1-0.5,0.1c-0.1,0-0.2,0-0.2-0.1c0,0-0.1-0.1-0.1-0.2
					c0-0.1,0-0.2,0.1-0.3c0-0.1,0.1-0.3,0.2-0.4c0.1-0.1,0.2-0.3,0.3-0.4c0.1-0.2,0.2-0.3,0.3-0.4c0,0,0,0,0-0.1c0,0,0,0,0-0.1
					c0,0,0,0-0.1,0c0,0-0.1,0-0.2,0.1c-0.1,0-0.2,0.1-0.2,0.1c-0.1,0.1-0.1,0.2-0.2,0.3c-0.1,0.1-0.2,0.3-0.3,0.4
					c-0.1,0-0.1,0.1-0.2,0.1c-0.2,0.1-0.3,0.3-0.5,0.4c-0.2,0.1-0.4,0.2-0.6,0.3c-0.2,0.1-0.4,0.1-0.6,0.1c-0.2,0-0.3-0.1-0.3-0.3
					c0-0.1,0-0.3,0.1-0.5c0.1-0.2,0.2-0.4,0.3-0.6c0.1-0.2,0.2-0.4,0.4-0.5c0.1-0.2,0.2-0.3,0.3-0.4l0.1-0.2l0,0c0,0,0,0,0,0
					c1.1-0.4,1.6-0.9,1.6-0.9v0c0.1-0.1,0.2-0.2,0.3-0.2c0.3-0.3,0.5-0.5,0.8-0.8c0.2-0.3,0.4-0.5,0.6-0.7c0.2-0.2,0.3-0.4,0.4-0.6
					c0.1-0.2,0.1-0.3,0.1-0.4c0-0.1,0-0.1-0.1-0.1c0,0-0.1,0-0.1,0c-0.1,0-0.2,0.1-0.5,0.2c-0.2,0.1-0.5,0.3-0.8,0.5
					c-0.2,0.1-0.4,0.3-0.5,0.4c-0.1,0.1-0.3,0.3-0.4,0.5c-0.1,0.1-0.2,0.3-0.4,0.5c-0.1,0.2-0.3,0.4-0.4,0.5
					c-0.1,0.2-0.3,0.4-0.4,0.6c-0.1,0.2-0.3,0.4-0.4,0.6c0,0-0.1,0.1-0.1,0.1c-1.5,0.4-2.9,0.2-3.2,0.2v0c-1.7-0.2-3.5-1-4.3-3
					L20,29.2l-0.1,0.1C20.7,31.4,22.6,32,24.4,32.1L24.4,32.1z M21.2,32.4c0.1,0,0.2-0.1,0.2-0.1c0.1,0,0.1,0,0.2,0.1
					c0,0.2-0.1,0.3-0.3,0.5c-0.2,0.1-0.4,0.2-0.6,0.2h0c0,0-0.1,0-0.1,0c0,0-0.1,0-0.1,0c0-0.1,0.1-0.2,0.2-0.3
					c0.1-0.1,0.1-0.2,0.2-0.2C21,32.6,21.1,32.5,21.2,32.4L21.2,32.4z M31,28.3c0,0,0.1,0,0.1,0c0.1,0,0.1,0.1,0.1,0.2
					c0,0.2-0.1,0.5-0.3,0.8c-0.2,0.3-0.4,0.6-0.7,0.9c-0.2,0.2-0.4,0.5-0.7,0.7l0,0l0,0c-0.4,0.4-1,0.7-1.5,0.9
					c0.3-0.4,0.5-0.7,0.7-1c0.2-0.3,0.4-0.6,0.6-0.8c0.2-0.2,0.3-0.4,0.4-0.5c0.1-0.1,0.2-0.2,0.3-0.3c0.2-0.2,0.3-0.3,0.4-0.4
					c0.1-0.1,0.2-0.2,0.3-0.3C30.8,28.4,30.9,28.3,31,28.3z"/>
			</g>
			<g>
				<path fill-rule="evenodd" clip-rule="evenodd" fill="#861100" d="M26.1,21.8c0.6-0.2,1.2-0.4,1.8-0.6c2.1-0.8,2.6-1.8,2.6-2.5
					c0-0.1,0-0.3-0.1-0.4c-0.1-0.2-0.4-0.2-0.6,0c-0.1,0.2,0.1,0.7,0.3,0.5c0.2-0.1-0.1-0.4,0-0.5c0.1,0,0.3,0.3,0.3,0.3
					c0,0.2-0.1,0.4-0.1,0.6c-0.3,0.6-0.8,1-1.3,1.3c-0.6,0.3-1.2,0.6-1.9,0.8c-0.4,0.1-0.8,0.3-1.1,0.4c-0.6,0.2-1.2,0.3-1.7,0.5
					c0,0-0.6,0.3-0.6,0.3c-0.1-0.1-0.2-0.3-0.4-0.4c-0.1-0.2-0.3-0.4-0.3-0.6c0,0,0,0,0,0c0-0.3,0.2-0.4,0.3-0.4
					c0.2,0,0.3,0.1,0.5,0.1l0,0l0,0c0-0.1,0-0.1,0-0.1c0-0.2-0.1-0.3-0.1-0.3c0,0,0,0,0,0c0.2,0,0.8-0.2,0.9-0.6l0,0l0,0
					c-0.1,0-0.2,0-0.3-0.1c-0.1-0.1-0.4-0.1-0.7-0.1c-0.1,0-0.3,0-0.3,0.1c0,0-0.1,0-0.1,0c0,0,0,0-0.1-0.1c0-0.1,0-0.3-0.2-0.3
					c0.2,0-0.2,0.6-0.2,0.7c-0.1,0.3-0.3,0.5-0.3,0.8c0,0.1,0,0.2,0,0.3c0,0,0,0.1,0,0.2c-0.1-0.1-0.2-0.1-0.4-0.3
					c-0.1-0.1-0.3-0.2-0.4-0.4c0-0.1-0.1-0.4,0-0.5c-0.2,0.1-0.3,0.4-0.3,0.6c0,0,0,0.1,0,0.1C21,20.9,21,20,21.3,19.6
					c0.1-0.1,0.3-0.3,0.4-0.4c-0.5,0-0.7,0.5-0.7,0.9c0,0.3,0.1,0.6,0.2,0.9c0.1,0.2,0.4,0.5,0.5,0.7c0,0-0.3-0.2-0.3-0.2
					c-0.1-0.1-0.3-0.2-0.4-0.3c-0.3-0.3-0.7-0.8-0.7-1.2c0-0.3-0.1-0.5-0.4-0.6c-0.1-0.1-0.2-0.1-0.4-0.1c-0.1,0-0.2,0-0.2,0
					c0,0,0,0.1,0,0.1c0.1,0,0.2-0.1,0.2-0.1c0.1,0,0.1,0,0.2,0.1c0.2,0.1,0.2,0.4,0.3,0.6c0.2,0.9,1.2,1.6,1.3,1.6
					c-0.1,0-0.2,0-0.2,0c0,0-0.1,0-0.2,0c0,0-0.1-0.1-0.1-0.1c-0.1-0.1-0.2-0.2-0.3-0.2c-0.1-0.1-0.2-0.1-0.3-0.2
					c-0.2-0.1-0.5-0.1-0.7,0c-0.1,0-0.2,0.1-0.2,0.2c-0.1,0.2-0.1,0.3-0.1,0.5c0.1-0.2,0.2-0.3,0.4-0.4c0.4-0.3,0.8,0,1.1,0.3
					c-0.2,0.1-0.4,0.2-0.5,0.4l0,0.1l0.1,0c0,0,0,0,0,0c0.1,0,0.2,0,0.3,0.1c0.1,0,0.1,0.1,0.2,0.1c0,0-0.1,0.2-0.1,0.3
					c0,0.1,0,0.3,0.1,0.6l0,0l0,0c0.3-0.3,0.5-0.6,1-0.6c0.1,0,0.2,0,0.3,0c-0.1,0-0.3,0.1-0.4,0.2c-0.1,0.1-0.2,0.2-0.3,0.3
					c-0.1,0.1-0.3,0.1-0.3,0.2c-0.1,0.1,0.1,0.3,0.2,0.4c0.1,0.1,0.2,0.1,0.4,0.2c0.1,0,0.2,0,0.2,0l0,0l0,0c0-0.2,0-0.5,0.3-0.5
					c0,0,0.2,0.1,0.3,0.1c-0.4,0.5-1.1,1.7-1.2,2.8c0,0.2,0,0.3,0,0.4c0,0.6,0.1,1.2,0.3,1.8c0,0,0,0.1,0.1,0.1
					c0,0.1,0.1,0.1,0.1,0.2c0,0.1,0,0.1,0,0.2c0,0.1,0,0.2,0.1,0.3c0.1,0.1,0.3,0,0.4,0c0,0,0.1,0.1,0.1,0.1c0,0,0.1,0.1,0.1,0.2
					c0,0,0,0.1,0,0.1c0,0,0,0,0,0c0,0,0,0.4,0.7,0.8c0.3,0.2,0.6,0.5,0.7,0.6c0.1,0.1,0.2,0.2,0.3,0.3c0.1,0.1,0.2,0.2,0.3,0.4
					c0-0.1,0.1-0.4,0-0.6c0,0,0,0,0.1,0.1c0.2,0.2,0.4,0.4,0.4,0.5l0,0.1l0-0.1c0,0,0.1-0.2,0.1-0.4c0-0.1,0-0.2-0.1-0.3
					c0,0-0.1-0.1-0.1-0.2c0.1,0,0.3,0,0.6,0c0.7,0,1.8-0.2,2.6-1.2c0.2-0.2,0.4-0.3,0.5-0.3c0.1,0,0.2,0,0.2,0.1
					c0.1,0,0.1,0.1,0.1,0.1l0,0l0,0c0,0,0-0.1,0-0.2c0-0.1,0-0.1-0.1-0.2c0,0,0.1-0.1,0.1-0.1C29,29,29.1,29,29.2,29h0l0,0
					c0-0.1-0.1-0.2-0.1-0.2c-0.1-0.1-0.2-0.2-0.3-0.2c0,0-0.1,0-0.1,0c0,0,0.1-0.2,0.1-0.2c-0.1,0-0.2,0-0.4,0c-0.1,0-0.2,0-0.3,0.1
					c0,0,0-0.1,0-0.1c0-0.8-0.5-1.4-0.6-1.5c0,0,0-0.2,0-0.3c0-0.3,0-0.7,0-0.8c0.1,0.1,0.3,0.2,0.4,0.2c0.1,0,0.1,0,0.2,0
					c0,0,0,0,0,0c0.1,0,0.2,0,0.2-0.1c0,0,0-0.1,0-0.1c0,0,0,0,0,0c0.1,0,0.2,0,0.3,0c0.1,0,0.1,0,0.1,0c0,0,0,0,0,0c0,0,0,0,0,0
					c0,0,0,0,0-0.1c0,0-0.1-0.2-0.1-0.3c0-0.2-0.1-0.4-0.1-0.6c0-0.1,0-0.1-0.1-0.2c0-0.1-0.1-0.1-0.2-0.2c0,0-0.1,0,0-0.1
					c0-0.1,0.1,0,0.1,0c0,0,0-0.1,0-0.1c0-0.1,0-0.2-0.1-0.3c0-0.1-0.1-0.1-0.2-0.1c-0.1,0-0.1-0.1-0.2-0.1c0.1-0.1,0.1-0.2,0.1-0.3
					c0-0.1,0-0.2-0.1-0.3c0-0.1-0.1-0.1-0.1-0.1c-0.1,0-0.1,0-0.2,0c0,0-0.1,0-0.1,0c-0.1,0-0.2-0.1-0.3-0.3l0,0l0,0
					c-0.3,0.2-0.6,0.3-0.8,0.3c-0.1,0-0.2,0-0.3,0c-0.1,0-0.2,0-0.2,0c0,0-0.2,0.1-0.2,0.1c0,0-0.2,0-0.3-0.1h0l0,0
					c-0.3,0.1-0.6,0.3-0.8,0.6c0,0.1-0.1,0.1-0.1,0.2c-0.2-0.1-0.3-0.3-0.5-0.4c0,0-0.4-0.4-0.4-0.4c0.3-0.2,0.6-0.3,0.8-0.4
					C25,22.1,25.5,21.9,26.1,21.8L26.1,21.8z M21.1,21.6c0.2,0,0.3,0,0.5,0.1c0.1,0,0.4,0.2,0.3,0.3c-0.1,0.1-0.4-0.1-0.5-0.2
					C21.2,21.9,21.1,21.7,21.1,21.6C21,21.6,21,21.6,21.1,21.6L21.1,21.6z M21.9,22.4c0,0-0.1,0-0.1,0.1c-0.1,0.1-0.3,0.1-0.4,0.1
					c-0.2,0.1-0.3,0.2-0.5,0.4c0,0,0-0.2,0-0.2c0-0.1,0-0.3,0.1-0.4c0-0.1,0.1-0.2,0.1-0.3c-0.1,0.1-0.1,0.1-0.2,0.1
					c-0.1,0-0.3-0.1-0.4-0.1c0.1-0.2,0.3-0.3,0.5-0.3c0.2,0.2,0.3,0.3,0.5,0.4c0.1,0.1,0.2,0.1,0.3,0.2C21.7,22.3,22,22.4,21.9,22.4
					L21.9,22.4z M21.5,21.1c0-0.1,0-0.2,0-0.2c0,0,0,0,0-0.1c0,0,0,0,0,0c0,0,0,0,0,0c0,0.4,0.3,0.7,0.5,1c0.2,0.3,0.4,0.6,0.6,0.8
					c0,0,0.1,0.1,0.1,0.1c0,0-0.3-0.2-0.3-0.2C21.7,22,21.5,21.4,21.5,21.1L21.5,21.1z M22,29.2c-0.1,0-0.2,0-0.3-0.1
					c0-0.1,0-0.1,0-0.2c0-0.1,0.1-0.1,0.1-0.2c0-0.1-0.1,0-0.1-0.1c-0.1-0.1-0.2-0.3-0.2-0.5c-0.1-0.4-0.2-0.9-0.2-1.5
					c0-0.1,0-0.3,0-0.4c0.1-0.7,0.4-1.5,0.8-2c0.1-0.2,0.4-0.7,0.7-0.7c0,0,0,0,0,0c-0.2,0.2-1.3,1.6-1.3,3.3c0,0.3,0,0.7,0.1,1
					c0.1,0.2,0.1,0.4,0.2,0.6c0,0.1,0.1,0.2,0.2,0.3c0.1,0.1,0.1,0.2,0.2,0.3c0.1,0,0.1,0,0.2,0c0,0,0.1-0.1,0.1-0.1
					c0.1,0.1,0,0.2,0,0.3C22.3,29.1,22.1,29.2,22,29.2L22,29.2z M24.1,24.6C24.1,24.6,24.1,24.6,24.1,24.6c-0.1,0-0.2,0-0.3,0
					c-0.1,0-0.3,0-0.4,0.1c0-0.2,0.2-0.3,0.3-0.4c0.1,0,0.1-0.1,0.2-0.1c0,0,0.1,0.1,0.1,0.1c-0.1,0-0.3,0-0.4,0.1
					C23.8,24.5,24,24.5,24.1,24.6L24.1,24.6z M23.3,24.7c0,0-0.2,0.1-0.2,0.1C23.1,24.9,23,24.9,23,25c-0.1,0.1-0.1,0.2-0.1,0.4
					c0,0.1,0,0.3,0,0.4c0,0,0,0,0,0.1c0,0.1,0,0.2,0,0.3c0,0.1,0,0.2,0,0.3c0,0.1,0,0.2,0,0.2c0,0.1,0,0.2,0,0.2c0,0,0,0.1,0,0.1
					l-0.2,0.4l0,0c0,0,0.2,0.1,0.4,0.1c0.1,0,0.1,0,0.2,0c0,0,0,0,0,0.1c0,0.1,0,0.4,0.3,0.6l0,0l0,0c0-0.2,0.2-0.5,0.2-0.6l0.1,0.4
					l0.2-0.3l0.1,0.7l0,0c0,0,0.3-0.1,0.3-0.2c0.2,0.4,0.7,0.5,0.9,0.5c0,0,0,0,0,0c0,0,0,0,0,0c0,0,0,0,0,0c0,0,0-0.1,0-0.2
					c0-0.1,0-0.2,0.1-0.3c0.1-0.1,0.1-0.2,0.1-0.3c0.1,0.1,0.2,0.2,0.3,0.2l0,0l0,0c0.1-0.2,0.2-0.4,0.2-0.6c0-0.3-0.1-0.5-0.3-0.7
					c-0.1-0.1-0.4-0.4-0.5-0.2c0.1-0.1,0.3,0.1,0.4,0.1c0.1,0.1,0.2,0.2,0.2,0.3c0.1,0.2,0.1,0.4,0.1,0.6c0,0,0,0.5-0.1,0.5
					c-0.2-0.1-0.2-0.3-0.3-0.6c0,0-0.1,0.1-0.1,0.1c0,0.1,0,0.1,0,0.2c0,0.1,0,0.2-0.1,0.3c-0.1,0.1-0.2,0.2-0.2,0.3
					c0,0,0,0.3,0,0.3c-0.2,0-0.4-0.1-0.6-0.2c-0.4-0.3-0.2-0.9-0.5-1.2c0.1,0.1,0.1,0.4,0.1,0.5c0,0.1,0,0.4-0.1,0.5
					c-0.1,0-0.1-0.3-0.1-0.4c0-0.1,0-0.1,0-0.2c0-0.1,0-0.1,0-0.2c0,0,0-0.1,0-0.1c0-0.1,0-0.1,0-0.2c0,0.2,0,0.3,0,0.5
					c0,0-0.1,0.1-0.1,0.1c0,0-0.1,0.1-0.1,0.1c0-0.1,0-0.1,0-0.2c0-0.1,0-0.1,0-0.2c0-0.1,0-0.2,0-0.3c0,0.1,0,0.1-0.1,0.2
					c0,0,0,0.1,0,0.1c0,0,0,0.1,0,0.1c0,0-0.2,0.4-0.3,0.7c-0.1-0.1-0.2-0.3-0.2-0.4c0-0.3,0.1-0.5,0-0.7c0,0,0-0.1,0-0.1
					c0,0-0.1-0.1-0.1-0.1c0.1,0.4-0.1,0.8-0.5,0.7c0,0-0.1,0-0.1,0c0,0,0.2-0.2,0.2-0.3c0-0.1,0-0.3,0-0.5c0-0.1,0-0.3,0-0.4
					c0-0.2,0-0.4,0.1-0.6c-0.1,0-0.1,0.1-0.2,0.2c-0.1-0.1,0-0.3,0-0.4c0-0.1,0.1-0.3,0.2-0.4c0.2-0.2,0.4-0.2,0.7-0.2
					c-0.3,0.1-0.7,0.3-0.8,0.5c0.3-0.2,0.8-0.5,1.2-0.3c-0.3,0.1-1.1,0.4-1.1,0.7c0.2-0.2,0.6-0.4,1-0.5c-0.3,0.2-0.7,1.3-0.6,1.6
					c0.1-0.2,0.1-0.4,0.2-0.6c0.2-0.3,0.4-0.6,0.6-0.7c-0.3,0.4-0.2,0.9,0.1,1.3c0.2,0.3,0.8,0.7,0.7,1.1c0.1-0.6-0.3-0.8-0.4-1.2
					c-0.1-0.4,0.1-0.7,0.5-0.9c0.6-0.2,1.4,0.2,1.4,0.9c0,0.2-0.1,0.5-0.2,0.8l0,0.1l-0.2,0l0,0.1l0.3,0.1l0.1-0.1
					c0.1-0.3,0.2-0.5,0.2-0.7l0.2,0.1c0,0,0.2,0.2,0.4,0.5c0.2,0.3,0.4,0.7,0.4,1.2c0,0,0,0,0,0c0,0.1-0.1,0.1-0.2,0.2
					c-0.1,0.1-0.2,0.3-0.3,0.4c0,0.1-0.1,0.2-0.1,0.2c0,0,0,0.1,0,0.1c0,0,0,0.1,0,0.1c0-0.1,0-0.2-0.1-0.2c0,0,0-0.1-0.1-0.1
					c-0.1-0.1-0.1-0.3-0.3-0.4c0,0-0.2,0-0.2,0c0,0.1,0.1,0,0.1,0c0.1,0,0,0.3,0,0.4c0,0.1-0.1,0.3-0.2,0.4
					c-0.2,0.3-0.6,0.5-0.9,0.7c-0.2,0.1-0.4,0.1-0.5,0.1c-0.1,0-0.2,0-0.2,0c0,0-0.2,0-0.2,0c0.1-0.1,0.2-0.2,0.3-0.4
					c0-0.1,0.1-0.2,0.1-0.3c0-0.1,0-0.2,0-0.3c-0.2,0.2-0.5,0.3-0.8,0.3c-0.2,0.1-0.4,0.1-0.6-0.1c-0.2-0.1-0.3-0.2-0.5-0.3
					c-0.1,0-0.1-0.1-0.1-0.1c0,0,0,0-0.1,0c0,0,0,0-0.1,0c0,0,0,0,0,0c0,0,0,0,0,0c0,0,0,0-0.1-0.1c0,0-0.1-0.1-0.1-0.1
					c0-0.1,0.1-0.3,0-0.4c0,0-0.1,0-0.1,0c-0.1,0-0.1-0.1-0.1-0.1c0,0,0-0.1-0.1-0.1c-0.3-0.3-0.4-0.7-0.5-1.1
					c-0.1-0.3-0.1-0.5-0.1-0.7c0-0.9,0.4-1.7,0.7-2.2c0.2-0.3,0.4-0.5,0.5-0.6c0,0,0-0.1,0.1-0.1c0.1,0,0.2,0.1,0.4,0.2
					c0.1,0,0.2,0.1,0.3,0.1c0.1,0.1,0.2,0.1,0.3,0.2c0,0,0,0,0,0C23.7,24.2,23.4,24.4,23.3,24.7L23.3,24.7z M27.4,26.8
					C27.4,26.8,27.4,26.8,27.4,26.8C27.4,26.8,27.4,26.8,27.4,26.8C27.4,26.8,27.4,26.8,27.4,26.8C27.4,26.8,27.4,26.8,27.4,26.8
					c-0.1-0.1-0.2-0.1-0.2-0.2c-0.1-0.1-0.1-0.2-0.2-0.4c-0.1-0.1-0.1-0.3-0.2-0.4c0-0.1,0-0.1-0.1-0.2c-0.1,0-0.2-0.1-0.2-0.1
					c0.2,0.1,0.3,0.3,0.4,0.5c0,0.1,0.1,0.2,0.1,0.2c0,0.1,0.1,0.2,0.1,0.3l-0.1,0.2l-0.2-0.1c0,0,0-0.1,0-0.1
					c0-0.3-0.1-0.6-0.3-0.8c-0.1-0.1-0.5-0.3-0.5-0.5c0.1-0.2,0.5-0.1,0.6,0c0.3,0.1,0.7,0.3,0.9,0.5c0,0.1,0,0.5,0,0.8
					C27.4,26.6,27.4,26.7,27.4,26.8L27.4,26.8z M24.8,30.6C24.8,30.6,24.8,30.6,24.8,30.6C24.8,30.6,24.8,30.6,24.8,30.6
					C24.8,30.6,24.8,30.6,24.8,30.6L24.8,30.6z M24,29.9c0.2-0.1,0.4-0.1,0.6-0.2c0.1,0,0.1-0.1,0.2-0.1c0,0.1,0,0.2,0,0.3
					c0,0.1-0.1,0.2-0.2,0.3c-0.2,0.2-0.4,0.2-0.6,0.2c-0.2,0-0.4-0.1-0.6-0.2c-0.2-0.1-0.3-0.2-0.4-0.3c0,0,0,0,0-0.1
					c0.1,0.1,0.2,0.1,0.4,0.1C23.6,30,23.8,29.9,24,29.9L24,29.9z M26.5,29.8c0.2-0.4,0.2-0.7,0.2-0.8c0,0,0.1,0.1,0.1,0.1
					c0,0,0,0.1,0,0.2c0,0.2,0.1,0.3,0.1,0.4l0-0.1c0,0,0.1-0.2,0.2-0.4c0.1-0.2,0.1-0.3,0.2-0.5c0-0.1,0.1-0.1,0.1-0.1c0,0,0,0,0,0
					c0,0.2-0.1,0.5-0.2,0.7c-0.4,0.7-1.1,1.1-1.7,1.2C26.1,30.4,26.4,30.1,26.5,29.8L26.5,29.8z M22.1,29.3c0.1,0,0.1-0.1,0.2-0.1
					c0.1,0,0.1,0,0.1,0c0.1,0.1,0,0.2-0.1,0.3C22.3,29.4,22.2,29.3,22.1,29.3L22.1,29.3z M24.8,31.6c0,0-0.2-0.2-0.2-0.2
					c-0.1-0.1-0.2-0.1-0.2-0.2c-0.1-0.1-0.1-0.1-0.2-0.2c-0.1,0-0.1-0.2-0.2-0.1c0.1,0.1,0.2,0.2,0.2,0.3c0,0.1,0.1,0.1,0.1,0.2
					c0,0,0,0.2,0,0.2c-0.1-0.1-0.2-0.2-0.3-0.3c-0.1-0.1-0.2-0.2-0.3-0.3c-0.2-0.2-0.4-0.4-0.7-0.6c-0.6-0.4-0.6-0.7-0.6-0.8
					c0-0.2,0.1-0.3,0.2-0.3c0.1,0,0.1,0,0.2,0c0.1,0,0.2,0.1,0.3,0.2c0.1,0.1,0.2,0.2,0.4,0.3c0.1,0.1,0.2,0.1,0.3,0.1
					c-0.1,0-0.2,0-0.3,0c-0.2,0-0.4-0.1-0.5-0.2c0-0.1-0.1-0.1-0.1-0.2c0,0,0-0.1-0.1-0.1c0,0-0.1,0-0.1,0c0.2,0.1,0.2,0.3,0.2,0.4
					c0.3,0.6,1,0.9,1.6,1.1C24.8,31.2,24.8,31.4,24.8,31.6C24.8,31.6,24.8,31.6,24.8,31.6L24.8,31.6z M28.8,29.2
					C28.8,29.2,28.8,29.2,28.8,29.2c-0.1-0.1-0.2-0.1-0.3-0.1c-0.1,0-0.2,0-0.3,0.1c0,0,0,0-0.1,0c0,0,0.1,0,0.2,0
					c0.1,0,0.1,0,0.2,0C28.5,29.1,28.6,29.1,28.8,29.2c0,0.1,0,0.2,0,0.2c0,0,0,0.1,0,0.1c-0.1,0-0.2-0.1-0.3-0.1
					c-0.2,0-0.3,0.1-0.5,0.3c-0.7,1-1.9,1.2-2.6,1.2c-0.2,0-0.3,0-0.5,0c-0.1,0-0.1,0-0.2,0c-0.1,0-0.2,0-0.2,0
					c0.2,0.1,0.4,0.3,0.4,0.6c0,0,0,0.1,0,0.1c0-0.1-0.1-0.3-0.4-0.5l0,0l0,0c-0.8-0.3-1.2-0.6-1.4-0.9c0-0.1-0.1-0.1-0.1-0.1
					c0.1,0.1,0.3,0.3,0.4,0.3c0.3,0.2,0.6,0.3,0.9,0.3c0.3,0.1,0.6,0.1,1,0.1c0,0,0.1,0,0.1,0v0c0.8-0.1,2-0.4,2.4-1.4
					c0,0,0.1-0.1,0.1-0.1c0.2-0.2,0.4-0.4,0.7-0.4c0.2,0,0.3,0,0.5,0.2C29,29,28.8,29.1,28.8,29.2L28.8,29.2z M28.1,28.4
					c0-0.1,0.2-0.1,0.2-0.1c0.1,0,0.1,0,0.2,0c0.1,0,0.1,0,0.2,0c0,0-0.1,0.1-0.1,0.1c-0.1,0.1-0.2,0.1-0.2,0.1
					c-0.1,0-0.1,0.1-0.2,0.2c0.1,0,0.1-0.1,0.2-0.1s0.1-0.1,0.2-0.1c0,0,0.1,0,0.1,0c0.1,0,0.2,0,0.3,0.1c0.1,0.1,0.1,0.1,0.2,0.2
					c-0.2-0.1-0.4-0.2-0.5-0.2c-0.3,0-0.5,0.1-0.7,0.3c0,0,0-0.1,0-0.1c0-0.1,0-0.2,0.1-0.3C28,28.6,28,28.5,28.1,28.4L28.1,28.4z
					 M27.5,26.8C27.5,26.8,27.5,26.8,27.5,26.8c0.1,0.1,0.2,0.2,0.2,0.3c0.1,0.2,0.2,0.3,0.2,0.5c0,0.2,0.1,0.4,0.1,0.5
					c0,0.1,0,0.2,0,0.3c0,0.2,0,0.4-0.2,0.6c0.1-0.3,0.1-0.5,0.1-0.7C27.9,27.7,27.6,27.2,27.5,26.8C27.4,26.8,27.4,26.8,27.5,26.8
					C27.4,26.8,27.4,26.8,27.5,26.8L27.5,26.8z M25.4,23c0.1-0.1,0.3-0.1,0.4,0c0,0,0.1-0.1,0.2-0.1c0.2-0.1,0.3,0,0.5,0
					c0.3,0,0.6-0.1,0.9-0.2c0.1,0.3,0.4,0.2,0.7,0.2c0,0,0,0,0,0.1c0,0.1,0.1,0.1,0.1,0.2c0,0.3-0.3,0.3-0.4,0.5c0,0,0.3,0,0.4,0
					c0.1,0,0.3,0.1,0.3,0.3c0,0,0,0.2,0,0.2c0,0,0,0-0.1,0c0,0,0,0,0,0c0,0,0,0.1,0,0.1c0,0,0.1,0,0.1,0.1c0,0,0.1,0,0.1,0.1
					c0.1,0.1,0.1,0.2,0.1,0.3c0,0.2,0.1,0.4,0.1,0.6c0,0.1,0,0.3,0.1,0.4c-0.1,0-0.3,0-0.4,0c-0.1,0-0.3-0.2-0.3-0.3
					c0,0.2,0.2,0.3,0.3,0.4c0,0,0,0.1,0,0.1c-0.3,0.4-0.8-0.3-1.1-0.4c-0.1-0.1-0.3-0.2-0.4-0.3c-0.2-0.1-0.3-0.2-0.5-0.3
					c-0.1-0.1-0.3-0.2-0.2-0.3c0.1-0.1,0.4-0.1,0.5-0.1c0.1,0,0.3,0,0.4,0c0.4,0,0.9,0.2,1.3,0.5c0-0.4-0.7-0.7-1-0.8
					c-0.4,0-1.3-0.2-1.6,0.2c0.5-0.7,1.2-0.9,2-0.9c-0.3-0.1-0.7-0.1-1-0.1c-0.2,0-0.4,0-0.6,0.1c-0.2,0.1-0.3,0.2-0.4,0.3
					c0-0.4,0.3-0.5,0.5-0.8c-0.5,0.1-1,0.7-1.3,1.2C25.1,23.7,25.1,23.2,25.4,23L25.4,23z M24.2,23.6c0.1,0.1,0.3,0.3,0.5,0.4
					c0.1,0.1,0.3,0.3,0.3,0.4c0.1,0.2,0.1,0.3,0.1,0.5c0,0-0.5-0.4-0.6-0.4c-0.1,0-0.1-0.1-0.2-0.1c-0.1-0.1-0.2-0.1-0.2-0.2
					c-0.4-0.3-0.7-0.7-1.2-0.9c-0.3-0.1-0.8,0-0.8-0.5c-0.2,0.1-0.2,0.4-0.3,0.7c0,0.2,0,0.3,0,0.4c0,0-0.1,0-0.2,0
					c-0.1,0-0.4-0.1-0.4-0.3c0-0.2,0.1-0.2,0.2-0.1c-0.1-0.1,0.2-0.5,0.2-0.5c0.1-0.2,0.4-0.2,0.6-0.2c0.3,0,0.5,0.1,0.7,0.2
					c0.2,0.2,0.4,0.4,0.6,0.5c0.3,0.3,0.7,0.7,1,0.9l0,0c-1-0.7-1.5-1.5-1.8-2c-0.1-0.3-0.2-0.5-0.3-0.7c0-0.2-0.1-0.3-0.1-0.3v0
					l0,0c0-0.1,0-0.2,0-0.2c0-0.2,0.1-0.4,0.1-0.5c0-0.1,0.3-0.5,0.3-0.6c0.1,0.2,0,0.6-0.1,0.8c0-0.1,0.1-0.3,0.2-0.4
					c0-0.1,0.1-0.1,0.2-0.2c0.2-0.2,0.4-0.2,0.6-0.1c0.1,0,0.6,0.2,0.6,0.1c-0.1,0.2-0.3,0.3-0.5,0.4c-0.2,0.1-0.5,0.1-0.7,0.1
					c0.2,0,0.5,0.2,0.5,0.4c-0.1,0-0.3-0.1-0.4-0.1c0,0-0.3,0-0.3,0.1c0-0.1,0.1-0.3,0.1-0.4c-0.1,0.1-0.2,0.1-0.3,0.3
					c-0.1,0.1-0.1,0.2-0.1,0.4c0,0.4,0.2,0.7,0.4,1c0.1,0.1,0.1,0.2,0.2,0.3C23.6,23,23.9,23.3,24.2,23.6z"/>
				<polygon fill-rule="evenodd" clip-rule="evenodd" fill="#861100" points="24,31 24,31 24,31 				"/>
			</g>
		</g>
		<text transform="matrix(1 0 0 1 20.3096 43.9033)"><tspan x="0" y="0" fill="#861100" font-family="'Ebrima'" font-size="1.5031">S</tspan><tspan x="0.8" y="0" fill="#861100" font-family="'Ebrima'" font-size="1.5031">INCE 1992</tspan></text>
	</g>
</g>
</svg>
